<?xml version="1.0" encoding="utf-8" ?>
<svg baseProfile="full" height="200mm" version="1.1" viewBox="0,0,200,200" width="200mm" xmlns="http://www.w3.org/2000/svg" xmlns:ev="http://www.w3.org/2001/xml-events" xmlns:xlink="http://www.w3.org/1999/xlink"><defs /><rect fill="#1a1a1a" height="200" width="200" x="0" y="0" /><rect fill="#1a1a1a" height="200" width="180" x="10" y="0" /><text alignment-baseline="middle" fill="#e1ed5e" style="dominant-baseline: central; font-size:9.0px; font-family:Arial;" text-anchor="middle" x="100.0" y="100.0">2024</text><line stroke="#e1ed5e" stroke-width="0.3" x1="100.0" x2="100.0" y1="15.0" y2="10.0" /><path d="M 100.0 14.0 a86.0,86.0 0 0,1 42.35913384403234,11.155469271406648" fill="none" id="id49" stroke="none" /><text fill="#e1ed5e" style="font-size:6.75px; font-family:Arial;" text-anchor="middle"><textPath startOffset="22.145653131862478" xlink:href="#id49">January</textPath></text><path d="M 101.44090949804482 79.04949213459386 l 4.322728494134444 -62.8515235962184 a84.0,84.0 0 0,0 1.437724020899066,0.1112889320197854 l -5.401021509808744 62.76805689720356" fill="red" stroke="none" /><path d="M 106.04205211174951 79.88797359093562 l 2.600269971918116 -8.655453044540442 a30.037603185198133,30.037603185198133 0 0,0 0.4925585725194255,0.15259590485270833 l -2.748469177309172 8.609540551881086" fill="red" stroke="none" /><path d="M 106.38641147887787 79.99465700312896 l 13.847360455655636 -43.37665940143483 a66.53332815001491,66.53332815001491 0 0,0 1.0850548609524526,0.35667908472312476 l -14.58993805425583 43.132559395309684" fill="red" stroke="none" /><line stroke="#e1ed5e" stroke-width="0.3" x1="143.13028292997686" x2="145.6673583964461" y1="26.7553504044142" y2="22.446841604673864" /><path d="M 143.63769802327073 25.89364864446614 a86.0,86.0 0 0,1 29.32050498858742,28.57503671076993" fill="none" id="id50" stroke="none" /><text fill="#e1ed5e" style="font-size:6.75px; font-family:Arial;" text-anchor="middle"><textPath startOffset="20.669276256404974" xlink:href="#id50">February</textPath></text><line stroke="#e1ed5e" stroke-width="0.3" x1="172.87174338648825" x2="177.1583165268699" y1="56.24261187166439" y2="53.66864786411523" /><path d="M 173.72905801456457 55.72781907015455 a86.0,86.0 0 0,1 12.242430191666344,42.057860355516425" fill="none" id="id51" stroke="none" /><text fill="#e1ed5e" style="font-size:6.75px; font-family:Arial;" text-anchor="middle"><textPath startOffset="22.145653131862474" xlink:href="#id51">March</textPath></text><path d="M 120.7213421655516 96.59031103205396 l 30.683360660889512 -5.04893532036126 a52.09598638595363,52.09598638595363 0 0,0 0.13762893287037894,0.8836764773626394 l -30.765511085898154 4.5214706610671795" fill="red" stroke="none" /><path d="M 120.77682067341334 96.94652285012252 l 56.792030406325985 -8.346472728754334 a78.40207596145713,78.40207596145713 0 0,0 0.1842653505786984,1.3332522851057786 l -56.92694027345989 7.37033213544847" fill="red" stroke="none" /><path d="M 120.9064616781168 98.02013634271609 l 27.77433118597403 -2.630258040175 a48.89859727990056,48.89859727990056 0 0,0 0.07196564271827773,0.8363498550378088 l -27.815390451390048 2.153087137761529" fill="red" stroke="none" /><path d="M 120.93736805541906 98.37931529534042 l 6.067823156500413 -0.4696878879088218 a27.085974414225785,27.085974414225785 0 0,0 0.0319047483329674,0.46388803863160766 l -6.074991865998446 0.36545642512288" fill="red" stroke="none" /><path d="M 120.96210409425399 98.7389718711861 l 13.39269202838952 -0.8056710954398137 a34.416903729300415,34.416903729300415 0 0,0 0.030415382335332006,0.5900502917707495 l -13.404549000181424 0.5756490102923336" fill="red" stroke="none" /><path d="M 120.98066250479742 99.09900007780936 l 30.56760470268901 -1.3127044702415618 a51.595778308224936,51.595778308224936 0 0,0 0.03040542410502462,0.8852207475900912 l -30.585634813790882 0.7877774580873507" fill="red" stroke="none" /><line stroke="#e1ed5e" stroke-width="0.3" x1="184.99686870605535" x2="189.99668451229388" y1="99.2704041080226" y2="99.22748670261217" /><path d="M 185.99683186730306 99.26182062694052 a86.0,86.0 0 0,1 -10.086455211305974,41.156179273409016" fill="none" id="id52" stroke="none" /><text fill="#e1ed5e" style="font-size:6.75px; font-family:Arial;" text-anchor="middle"><textPath startOffset="21.40746469413373" xlink:href="#id52">April</textPath></text><path d="M 120.99922638620191 100.18025310272382 l 9.580969379786863 0.08224109907893175 a30.581322343747296,30.581322343747296 0 0,0 -0.009012124053688179,0.5249110453594128 l -9.578145824134506 -0.24669906040741563" fill="red" stroke="none" /><line stroke="#e1ed5e" stroke-width="0.3" x1="174.33088141563837" x2="178.70328620479359" y1="141.23008692659167" y2="143.65538615756765" /><path d="M 175.20536237346943 141.71514677278685 a86.0,86.0 0 0,1 -30.301960400862466,31.631185727798858" fill="none" id="id53" stroke="none" /><text fill="#e1ed5e" style="font-size:6.75px; font-family:Arial;" text-anchor="middle"><textPath startOffset="22.145653131862474" xlink:href="#id53">May</textPath></text><line stroke="#e1ed5e" stroke-width="0.3" x1="143.1302829299769" x2="145.66735839644613" y1="173.24464959558577" y2="177.55315839532614" /><path d="M 143.63769802327073 174.10635135553383 a86.0,86.0 0 0,1 -40.68552437913181,11.842963189579606" fill="none" id="id54" stroke="none" /><text fill="#e1ed5e" style="font-size:6.75px; font-family:Arial;" text-anchor="middle"><textPath startOffset="21.407464694133747" xlink:href="#id54">June</textPath></text><line stroke="#e1ed5e" stroke-width="0.3" x1="101.45913802915013" x2="101.54496967792366" y1="184.9874750549273" y2="189.98673829345242" /><path d="M 101.47630435890484 185.9873277026323 a86.0,86.0 0 0,1 -42.54439059252881,-10.42667462771756" fill="none" id="id55" stroke="none" /><text fill="#e1ed5e" style="font-size:6.75px; font-family:Arial;" text-anchor="middle"><textPath startOffset="22.145653131862474" xlink:href="#id55">July</textPath></text><line stroke="#e1ed5e" stroke-width="0.3" x1="58.13341422392154" x2="55.67067388415222" y1="173.97424548756322" y2="178.32567169271397" /><path d="M 57.64086615596768 174.84453072859336 a86.0,86.0 0 0,1 -31.369924170532247,-30.572349798747897" fill="none" id="id56" stroke="none" /><text fill="#e1ed5e" style="font-size:6.75px; font-family:Arial;" text-anchor="middle"><textPath startOffset="22.145653131862474" xlink:href="#id56">August</textPath></text><path d="M 82.37810715431573 111.42229804090323 l -2.559489823386614 1.6590303806404418 a24.05014261304412,24.05014261304412 0 0,0 -0.22158462426182512,-0.3483678335674178 l 2.5875921392743293 -1.6148488723943522" fill="red" stroke="none" /><line stroke="#e1ed5e" stroke-width="0.3" x1="26.387840678322732" x2="22.057713659400548" y1="142.50000000000003" y2="145.00000000000006" /><path d="M 25.521815274538298 143.00000000000003 a86.0,86.0 0 0,1 -11.493303480769221,-40.785679425670985" fill="none" id="id57" stroke="none" /><text fill="#e1ed5e" style="font-size:6.75px; font-family:Arial;" text-anchor="middle"><textPath startOffset="21.40746469413373" xlink:href="#id57">September</textPath></text><path d="M 81.4637452351635 109.86951160357371 l -9.135723542983596 4.8642582149638205 a31.349997711867754,31.349997711867754 0 0,0 -0.2488472217248647,-0.4771973593935127 l 9.21787883368341 -4.706714612465805" fill="red" stroke="none" /><path d="M 81.29705330413844 109.54985784667822 l -25.74597736250962 13.146079488649068 a49.908039647695546,49.908039647695546 0 0,0 -0.38305629342131614,-0.7663691860808675 l 25.967853569142676 -12.702178446404448" fill="red" stroke="none" /><path d="M 81.1358732173502 109.22738970284198 l -7.161042607269061 3.502824783636518 a28.971844998993713,28.971844998993713 0 0,0 -0.21469619128637213,-0.4486324659895417 l 7.220118056515345 -3.3793798155818715" fill="red" stroke="none" /><path d="M 80.41425534168474 107.57618678355246 l -15.55983574427162 6.018878729226631 a37.683386632990604,37.683386632990604 0 0,0 -0.22819859569874476,-0.6053238867150329 l 15.660865023784801 -5.7508865623174525" fill="red" stroke="none" /><path d="M 80.16572619554312 106.89939002012753 l -9.952889392308789 3.4621315820142646 a31.537853782754503,31.537853782754503 0 0,0 -0.17348008972510512,-0.5128630598804471 l 10.01085490360626 -3.290766847659656" fill="red" stroke="none" /><path d="M 80.05021161711548 106.5578916946017 l -8.325103020341848 2.7366267203436574 a29.763359293433304,29.763359293433304 0 0,0 -0.1553863978837735,-0.4867456782254332 l 8.370854134002876 -2.5933120084268326" fill="red" stroke="none" /><path d="M 79.94057633289273 106.21446072829308 l -14.494406719879827 4.490404252655684 a36.174042194272616,36.174042194272616 0 0,0 -0.17867165603494908,-0.5947398331335642 l 14.569354695918404 -4.240926815931396" fill="red" stroke="none" /><path d="M 79.73907114497094 105.5222062557868 l -24.948007783852177 6.799690460351735 a46.85805257051944,46.85805257051944 0 0,0 -0.20486010166564397,-0.7778871739622469 l 25.06105736632255 -6.370422782016686" fill="red" stroke="none" /><path d="M 79.48165901384964 104.47187691870673 l -25.590509964054338 5.577332539869242 a47.19123590975899,47.19123590975899 0 0,0 -0.16571379833395108,-0.793000514098247 l 25.682481473212658 -5.1372155744855865" fill="red" stroke="none" /><path d="M 79.407916724674 104.11899336999214 l -14.101071720626301 2.820609267671285 a35.38040542930275,35.38040542930275 0 0,0 -0.11401539123625823,-0.5965767052665474 l 14.147413404144716 -2.578129997371423" fill="red" stroke="none" /><path d="M 79.13060592940153 102.33845913500099 l -25.88072488388323 2.8999892052653355 a47.04269298490285,47.04269298490285 0 0,0 -0.08303619429380285,-0.8032998554294585 l 25.926693470658698 -2.455284827552946" fill="red" stroke="none" /><path d="M 79.06263194458094 101.62068470465958 l -35.710748076234005 2.764237751655907 a56.81757304050527,56.81757304050527 0 0,0 -0.06692579491603012,-0.9730863698861248 l 35.7529378323151 -2.150807957615439" fill="red" stroke="none" /><line stroke="#e1ed5e" stroke-width="0.3" x1="15.003131293944662" x2="10.003315487706104" y1="100.72959589197737" y2="100.7725132973878" /><path d="M 14.003168132696942 100.73817937305945 a86.0,86.0 0 0,1 10.791469493833604,-42.45332614584628" fill="none" id="id58" stroke="none" /><text fill="#e1ed5e" style="font-size:6.75px; font-family:Arial;" text-anchor="middle"><textPath startOffset="22.145653131862435" xlink:href="#id58">October</textPath></text><line stroke="#e1ed5e" stroke-width="0.3" x1="26.387840678322718" x2="22.05771365940052" y1="57.49999999999999" y2="54.99999999999999" /><path d="M 25.521815274538284 56.99999999999999 a86.0,86.0 0 0,1 29.574782752854787,-30.34633250058573" fill="none" id="id59" stroke="none" /><text fill="#e1ed5e" style="font-size:6.75px; font-family:Arial;" text-anchor="middle"><textPath startOffset="21.40746469413373" xlink:href="#id59">November</textPath></text><path d="M 85.34317274990677 84.96080404539775 l -13.379455508715628 -13.728500017640375 a40.16980809617177,40.16980809617177 0 0,0 0.4979669659497298,-0.4770410889113526 l 13.141816056900598 13.956153236857295" fill="red" stroke="none" /><line stroke="#e1ed5e" stroke-width="0.3" x1="56.869717070023135" x2="54.33264160355391" y1="26.7553504044142" y2="22.446841604673864" /><path d="M 56.362301976729285 25.89364864446614 a86.0,86.0 0 0,1 42.16139366436587,-11.88097634709845" fill="none" id="id60" stroke="none" /><text fill="#e1ed5e" style="font-size:6.75px; font-family:Arial;" text-anchor="middle"><textPath startOffset="22.145653131862474" xlink:href="#id60">December</textPath></text><path d="M 89.65649057296885 81.72400993836675 l -8.094860287244815 -14.302842493029845 a37.43466052130172,37.43466052130172 0 0,0 0.5619759187496985,-0.31171856890999705 l 7.848140180339014 14.439693977372988" fill="red" stroke="none" /></svg>