<?xml version="1.0" encoding="utf-8" ?>
<svg baseProfile="full" height="200mm" version="1.1" viewBox="0,0,200,200" width="200mm" xmlns="http://www.w3.org/2000/svg" xmlns:ev="http://www.w3.org/2001/xml-events" xmlns:xlink="http://www.w3.org/1999/xlink"><defs /><rect fill="#1a1a1a" height="200" width="200" x="0" y="0" /><rect fill="#1a1a1a" height="200" width="180" x="10" y="0" /><text alignment-baseline="middle" fill="#e1ed5e" style="dominant-baseline: central; font-size:9.0px; font-family:Arial;" text-anchor="middle" x="100.0" y="100.0">2022</text><line stroke="#e1ed5e" stroke-width="0.3" x1="100.0" x2="100.0" y1="15.0" y2="10.0" /><path d="M 100.0 14.0 a86.0,86.0 0 0,1 42.46469731375804,11.215312516191453" fill="none" id="id25" stroke="none" /><text fill="#e1ed5e" style="font-size:6.75px; font-family:Arial;" text-anchor="middle"><textPath startOffset="22.20632615414155" xlink:href="#id25">January</textPath></text><path d="M 100.0 79.0 l 0.0 -63.0 a84.0,84.0 0 0,0 1.4459219170901134,0.012445506434235476 l -1.084441437817585 62.990665870174325" fill="#4dd2ff" stroke="none" /><path d="M 104.307194497241 79.44645832069477 l 1.4988932771805876 -7.152582839037232 a28.307949255821846,28.307949255821846 0 0,0 0.47605515447553376,0.1040472180541187 l -1.6217911558096494 7.125722122887243" fill="#ff5307" stroke="none" /><path d="M 105.36241919743992 79.69619591428918 l 8.644218234366061 -32.72972646161049 a54.8519940791557,54.8519940791557 0 0,0 0.9108098150328623,0.24895872848857098 l -9.206325938622633 32.576081192295625" fill="#67ff28" stroke="none" /><path d="M 105.71112130821622 79.79150937346287 l 0.41310574868628264 -1.461752114787909 a22.519004807327672,22.519004807327672 0 0,0 0.3721102359655178,0.10862918181285917 l -0.43820620237522756 1.4544246040563462" fill="#ff0000" stroke="none" /><path d="M 106.0581310904928 79.89281104454417 l 9.09430732498365 -30.184384106412214 a52.524648603984176,52.524648603984176 0 0,0 0.8634417614916615,0.26827555831458794 l -9.612534459186028 30.023368413215106" fill="#7fff26" stroke="none" /><path d="M 106.40334571778207 80.00007090966166 l 2.3151299957362563 -7.230975460384519 a28.59255115266541,28.59255115266541 0 0,0 0.46744352222011437,0.15410877994749908 l -2.439256340198788 7.190052956177784" fill="#ff5708" stroke="none" /><line stroke="#e1ed5e" stroke-width="0.3" x1="143.23703022742887" x2="145.7803849466894" y1="26.81831364943548" y2="22.513508569990506" /><path d="M 143.74570117128098 25.957352633546492 a86.0,86.0 0 0,1 28.547481713284135,27.462654790039103" fill="none" id="id26" stroke="none" /><text fill="#e1ed5e" style="font-size:6.75px; font-family:Arial;" text-anchor="middle"><textPath startOffset="19.985693538727396" xlink:href="#id26">February</textPath></text><path d="M 113.06298171725822 83.55741782278167 l 4.592116963650147 -5.7801704217698155 a28.382269861807146,28.382269861807146 0 0,0 0.3799123618656885,0.30719604216156277 l -4.6909327240803265 5.700268282344123" fill="#ff5407" stroke="none" /><path d="M 113.89432698308785 84.25364557470407 l 3.0509094274494215 -3.4575766946157502 a25.61116958413478,25.61116958413478 0 0,0 0.32805348633085873,0.2945296591021986 l -3.10997390137627 3.4045480267442545" fill="#ff2d04" stroke="none" /><path d="M 114.16331599549186 84.49514656593476 l 3.4824083793264085 -3.812259186775388 a26.163379535493796,26.163379535493796 0 0,0 0.32989793496580955,0.30660417697493453 l -3.547514198087065 3.751750423725813" fill="#ff3505" stroke="none" /><path d="M 114.42810811169701 84.74124197986012 l 26.56525558479028 -28.094661030635116 a59.66552447221579,59.66552447221579 0 0,0 0.7401842335078829,0.7120566461873836 l -27.04492306191058 27.63322129768543" fill="#36ff2f" stroke="none" /><path d="M 114.94478906791727 85.2469230424477 l 5.28652314372943 -5.218707498839979 a28.428474601668604,28.428474601668604 0 0,0 0.34078395169754805,0.3512078179793827 l -5.375571359130087 5.126935485310483" fill="#ff5507" stroke="none" /><path d="M 116.82858285166822 87.43820079747576 l 5.979867340739348 -4.463708765866397 a28.46213839052276,28.46213839052276 0 0,0 0.2896868143745692,0.39513248925032246 l -6.055816767627544 4.360113832944582" fill="#ff5507" stroke="none" /><line stroke="#e1ed5e" stroke-width="0.3" x1="172.23445277983987" x2="176.4835382374775" y1="55.19839476539836" y2="52.563006222186495" /><path d="M 173.08426987136738 54.67131705675599 a86.0,86.0 0 0,1 12.851231095245387,41.99856678651699" fill="none" id="id27" stroke="none" /><text fill="#e1ed5e" style="font-size:6.75px; font-family:Arial;" text-anchor="middle"><textPath startOffset="22.20632615414155" xlink:href="#id27">March</textPath></text><path d="M 118.03404312379186 89.2402003453031 l 6.34352411366469 -3.7847890292401267 a28.386807576788623,28.386807576788623 0 0,0 0.24674938551500833,0.42177468483364206 l -6.407733173650025 3.6750349320525895" fill="#ff5407" stroke="none" /><path d="M 120.73433829027371 96.67025291283417 l 7.321260837572793 -1.1757282343427735 a28.41506555148421,28.41506555148421 0 0,0 0.07339761160495183,0.483598554739887 l -7.340414342617045 1.0495305672108044" fill="#ff5507" stroke="none" /><path d="M 120.96714384426684 98.82574320788733 l 7.389997480456539 -0.4138739543914752 a28.40157783254879,28.40157783254879 0 0,0 0.023135643675734365,0.48835687189122773 l -7.396026732365769 0.2866059758772476" fill="#ff5407" stroke="none" /><line stroke="#e1ed5e" stroke-width="0.3" x1="184.98032266829074" x2="189.97916517819016" y1="98.17113171792111" y2="98.06355123074" /><path d="M 185.9800911702706 98.14961562048488 a86.0,86.0 0 0,1 -9.607161424134198,41.387399972396054" fill="none" id="id28" stroke="none" /><text fill="#e1ed5e" style="font-size:6.75px; font-family:Arial;" text-anchor="middle"><textPath startOffset="21.466115282336823" xlink:href="#id28">April</textPath></text><path d="M 120.49622156327973 104.57218783832717 l 7.759607687013534 1.73097191534634 a28.950331768428114,28.950331768428114 0 0,0 -0.11268493975590722,0.48544377122957555 l -7.728662181327074 -1.8642843439244807" fill="#ff5c08" stroke="none" /><path d="M 120.41448212921028 104.9243191809786 l 9.220671324500861 2.224182243632326 a30.485133964650252,30.485133964650252 0 0,0 -0.12744046877598317,0.5090613235068444 l -9.181019541429817 -2.3825714065365666" fill="#ff710a" stroke="none" /><path d="M 120.02730092923936 106.31721596034902 l 6.353592008836615 2.0041149321908684 a27.662177427551963,27.662177427551963 0 0,0 -0.14714664630576255,0.45287081088579845 l -6.318153111514605 -2.113184643054462" fill="#ff4a06" stroke="none" /><path d="M 119.79798401119884 107.00284435728193 l 30.07004219078025 10.636225645996152 a52.89571653604682,52.89571653604682 0 0,0 -0.31101608042602047,0.855782677241006 l -29.882501849349 -11.15225612024329" fill="#7bff26" stroke="none" /><path d="M 119.67450827220406 107.3425965602758 l 8.674863052913244 3.237489787898456 a30.259297441682392,30.259297441682392 0 0,0 -0.18631905974719523,0.4864202714522913 l -8.617849713572543 -3.386333626183891" fill="#ff6e0a" stroke="none" /><path d="M 119.12269723197855 108.67885076344098 l 6.840784264155623 3.1046951700003107 a28.512353921863802,28.512353921863802 0 0,0 -0.2066811428835264,0.4451727945534702 l -6.786328504432265 -3.2219880318326117" fill="#ff5608" stroke="none" /><path d="M 118.81262510543309 109.33194174019688 l 15.806773599121806 7.840898837923821 a38.64465319014373,38.64465319014373 0 0,0 -0.3007314585705519,0.5933716981605659 l -15.669463470764986 -8.111824747787082" fill="#ffdd14" stroke="none" /><path d="M 118.64920377521936 109.65438752849418 l 17.275340532167885 8.943161016121717 a40.45295657381268,40.45295657381268 0 0,0 -0.3254488356206179,0.615626548398247 l -17.118839188322376 -9.239202579606099" fill="#fff316" stroke="none" /><line stroke="#e1ed5e" stroke-width="0.3" x1="174.80103733775053" x2="179.2010983576182" y1="140.37084112569926" y2="142.7455964860345" /><path d="M 175.68104954172406 140.8457921977663 a86.0,86.0 0 0,1 -30.038265399797805,32.042727171017184" fill="none" id="id29" stroke="none" /><text fill="#e1ed5e" style="font-size:6.75px; font-family:Arial;" text-anchor="middle"><textPath startOffset="22.206326154141568" xlink:href="#id29">May</textPath></text><path d="M 117.94076556474637 110.91462005526583 l 10.546848417700408 6.416384119409171 a33.345282366708176,33.345282366708176 0 0,0 -0.302545494814965,0.48779967022445747 l -10.43483828321748 -6.596980120998903" fill="#ff980e" stroke="none" /><line stroke="#e1ed5e" stroke-width="0.3" x1="143.8653032363475" x2="146.44561519142675" y1="172.8068346515853" y2="177.08958963109032" /><path d="M 144.38136562736335 173.6633856474863 a86.0,86.0 0 0,1 -40.68145358897372,12.25698825130547" fill="none" id="id30" stroke="none" /><text fill="#e1ed5e" style="font-size:6.75px; font-family:Arial;" text-anchor="middle"><textPath startOffset="21.466115282336833" xlink:href="#id30">June</textPath></text><line stroke="#e1ed5e" stroke-width="0.3" x1="102.19456741930631" x2="102.32365962044197" y1="184.97166512339345" y2="189.96999836594603" /><path d="M 102.22038585953345 185.97133177190398 a86.0,86.0 0 0,1 -42.740103519485714,-10.115201625700543" fill="none" id="id31" stroke="none" /><text fill="#e1ed5e" style="font-size:6.75px; font-family:Arial;" text-anchor="middle"><textPath startOffset="22.20632615414155" xlink:href="#id31">July</textPath></text><line stroke="#e1ed5e" stroke-width="0.3" x1="58.666819895761336" x2="56.23545636021788" y1="174.27360380694188" y2="178.64263932499728" /><path d="M 58.180547188652646 175.14741091055294 a86.0,86.0 0 0,1 -31.652253787137756,-30.449443065178592" fill="none" id="id32" stroke="none" /><text fill="#e1ed5e" style="font-size:6.75px; font-family:Arial;" text-anchor="middle"><textPath startOffset="22.20632615414155" xlink:href="#id32">August</textPath></text><path d="M 85.18274418774928 114.88116024355367 l -5.540750460606476 5.56464682250122 a28.852719906241646,28.852719906241646 0 0,0 -0.348924700611281,-0.35345887954256994 l 5.63571578627329 -5.468447448977985" fill="#ff5b08" stroke="none" /><path d="M 84.67929136418377 114.36230785411682 l -9.115324342602975 8.545106986274476 a33.494318359867705,33.494318359867705 0 0,0 -0.39069302828496183,-0.42402011939310147 l 9.261063778883667 -8.38693561208003" fill="#ff9a0e" stroke="none" /><path d="M 83.95833913139862 113.55231037782056 l -2.5075035711958797 2.1183882983622038 a24.282551316003758,24.282551316003758 0 0,0 -0.26699705865027334,-0.3216151570049462 l 2.5435966297396897 -2.0749118842434964" fill="#ff1a02" stroke="none" /><path d="M 83.50135304334701 112.99209946851258 l -5.672224507034754 4.466675673268681 a28.21978686862541,28.21978686862541 0 0,0 -0.29723926070947676,-0.38422181272256517 l 5.748270584962299 -4.368375866432864" fill="#ff5207" stroke="none" /><line stroke="#e1ed5e" stroke-width="0.3" x1="26.63291911575756" x2="22.317208475507996" y1="142.92168965132927" y2="145.44649492493687" /><path d="M 25.769776987707644 143.4266507060508 a86.0,86.0 0 0,1 -11.730757126820373,-40.83630448921669" fill="none" id="id33" stroke="none" /><text fill="#e1ed5e" style="font-size:6.75px; font-family:Arial;" text-anchor="middle"><textPath startOffset="21.46611528233685" xlink:href="#id33">September</textPath></text><line stroke="#e1ed5e" stroke-width="0.3" x1="15.007084014347285" x2="10.007500721073583" y1="101.09737516637583" y2="101.16192664675087" /><path d="M 14.007167355692545 101.11028546245083 a86.0,86.0 0 0,1 10.666146001902534,-42.60595125391555" fill="none" id="id34" stroke="none" /><text fill="#e1ed5e" style="font-size:6.75px; font-family:Arial;" text-anchor="middle"><textPath startOffset="22.20632615414155" xlink:href="#id34">October</textPath></text><path d="M 79.32604984820605 96.31383870115002 l -6.634743896725897 -1.1829735488536983 a27.73938075734181,27.73938075734181 0 0,0 0.08786023001253833,-0.4693528619379242 l 6.6133979428034975 1.2970044882541953" fill="#ff4b07" stroke="none" /><path d="M 79.3925641242962 95.95851677861259 l -3.427388147709833 -0.6721715295245722 a24.49267863969264,24.49267863969264 0 0,0 0.08469883655915489,-0.4130216072419907 l 3.4153100152356837 0.7310687929299654" fill="#ff1d02" stroke="none" /><path d="M 79.46518482838121 95.60439243477599 l -3.6374568089841475 -0.7786207245655901 a24.719857829265546,24.719857829265546 0 0,0 0.09264721731784882,-0.415319308942202 l 3.623515204664261 0.8411182030577512" fill="#ff2003" stroke="none" /><path d="M 79.54389044137918 95.25157060432595 l -3.4346555780432464 -0.7972786547734921 a24.525976771497653,24.525976771497653 0 0,0 0.0989999224661028,-0.4104185926420411 l 3.4204228553163287 0.85628247907493" fill="#ff1d03" stroke="none" /><path d="M 79.62865764111835 94.90015583598534 l -18.273036993511468 -4.5745459198742395 a39.83694113541996,39.83694113541996 0 0,0 0.17225430391251315,-0.6637660999277595 l 18.19158635772865 4.888408445350863" fill="#ffeb16" stroke="none" /><path d="M 81.43458229118936 90.18545643968196 l -30.58290301317161 -16.167545407896117 a55.5934022788948,55.5934022788948 0 0,0 0.4545208051512185,-0.8421580221982993 l 30.30007410880192 16.691584413426888" fill="#5fff29" stroke="none" /><line stroke="#e1ed5e" stroke-width="0.3" x1="26.266209847984243" x2="21.928928074336255" y1="57.711370442889674" y2="55.22380399835377" /><path d="M 25.398753493254645 57.213857153982495 a86.0,86.0 0 0,1 29.58750427330803,-30.492523968695096" fill="none" id="id35" stroke="none" /><text fill="#e1ed5e" style="font-size:6.75px; font-family:Arial;" text-anchor="middle"><textPath startOffset="21.46611528233685" xlink:href="#id35">November</textPath></text><path d="M 83.6137871275137 86.86637796730984 l -26.22304554439974 -21.017886891024457 a54.6065423241898,54.6065423241898 0 0,0 0.5941751077891267,-0.7283884260938968 l 25.85737194453422 21.466159486726436" fill="#69ff28" stroke="none" /><path d="M 83.84228863543731 86.58626213691792 l -26.041257976173718 -21.61881718492647 a54.84553697988707,54.84553697988707 0 0,0 0.6092800797622427,-0.7211954376086277 l 25.66526728292435 22.063871572164214" fill="#67ff28" stroke="none" /><path d="M 84.31358615837235 86.03803664274999 l -22.697410150068205 -20.20222161796827 a51.38588793867844,51.38588793867844 0 0,0 0.5937672614719807,-0.6556526403260869 l 22.34629924798018 20.58992704556391" fill="#8cff24" stroke="none" /><line stroke="#e1ed5e" stroke-width="0.3" x1="56.762969772571076" x2="54.21961505331055" y1="26.818313649435495" y2="22.513508569990535" /><path d="M 56.25429882871897 25.957352633546506 a86.0,86.0 0 0,1 42.265352541879196,-11.944610805530505" fill="none" id="id36" stroke="none" /><text fill="#e1ed5e" style="font-size:6.75px; font-family:Arial;" text-anchor="middle"><textPath startOffset="22.20632615414155" xlink:href="#id36">December</textPath></text><path d="M 91.90106846888425 80.62456947434976 l -12.366773490668768 -29.585576773223504 a53.066235194887,53.066235194887 0 0,0 0.8458154714259748,-0.345029367956369 l 11.855674149654412 29.79406702736345" fill="#79ff26" stroke="none" /><path d="M 92.57280143429618 80.3572730644239 l -9.911135827659136 -26.212000791669308 a49.023197513788126,49.023197513788126 0 0,0 0.7918826211342459,-0.29165705233609096 l 9.45847088075232 26.37872111181172" fill="#a6ff21" stroke="none" /><path d="M 98.55514903715128 79.0497635885617 l -0.5033808875834211 -7.298987141953788 a28.316324597527846,28.316324597527846 0 0,0 0.4865525977221017,-0.02935018141210438 l 0.3776662410216965 7.306570592746199" fill="#ff5307" stroke="none" /><path d="M 99.27714615592234 79.0124445844662 l -0.4914319292734415 -14.268382098388525 a35.27684254471988,35.27684254471988 0 0,0 0.6070529185755176,-0.015678385906243868 l 0.24575237550304493 14.274727276437128" fill="#ffb110" stroke="none" /><path d="M 99.63851952072746 79.00311137660856 l -0.4423436444781841 -25.693891562456557 a46.697698953857454,46.697698953857454 0 0,0 0.8038241237507134,-0.00691876800945505 l 6.294120953858764e-15 25.697698953857454" fill="#c0ff1e" stroke="none" /></svg>