<?xml version="1.0" encoding="utf-8" ?>
<svg baseProfile="full" height="200mm" version="1.1" viewBox="0,0,200,200" width="200mm" xmlns="http://www.w3.org/2000/svg" xmlns:ev="http://www.w3.org/2001/xml-events" xmlns:xlink="http://www.w3.org/1999/xlink"><defs /><rect fill="#1a1a1a" height="200" width="200" x="0" y="0" /><rect fill="#1a1a1a" height="200" width="180" x="10" y="0" /><text alignment-baseline="middle" fill="#e1ed5e" style="dominant-baseline: central; font-size:9.0px; font-family:Arial;" text-anchor="middle" x="100.0" y="100.0">2025</text><line stroke="#e1ed5e" stroke-width="0.3" x1="100.0" x2="100.0" y1="15.0" y2="10.0" /><path d="M 100.0 14.0 a86.0,86.0 0 0,1 42.46469731375804,11.215312516191453" fill="none" id="id61" stroke="none" /><text fill="#e1ed5e" style="font-size:6.75px; font-family:Arial;" text-anchor="middle"><textPath startOffset="22.20632615414155" xlink:href="#id61">January</textPath></text><line stroke="#e1ed5e" stroke-width="0.3" x1="143.23703022742887" x2="145.7803849466894" y1="26.81831364943548" y2="22.513508569990506" /><path d="M 143.74570117128098 25.957352633546492 a86.0,86.0 0 0,1 28.547481713284135,27.462654790039103" fill="none" id="id62" stroke="none" /><text fill="#e1ed5e" style="font-size:6.75px; font-family:Arial;" text-anchor="middle"><textPath startOffset="19.985693538727396" xlink:href="#id62">February</textPath></text><path d="M 117.45458315368197 88.32363383020206 l 52.36374946104589 -35.02909850939381 a84.0,84.0 0 0,0 0.7936134585683003,1.208727744089304 l -52.95895955497212 34.12255270132683" fill="red" stroke="none" /><line stroke="#e1ed5e" stroke-width="0.3" x1="172.23445277983987" x2="176.4835382374775" y1="55.19839476539836" y2="52.563006222186495" /><path d="M 173.08426987136738 54.67131705675599 a86.0,86.0 0 0,1 12.851231095245387,41.99856678651699" fill="none" id="id63" stroke="none" /><text fill="#e1ed5e" style="font-size:6.75px; font-family:Arial;" text-anchor="middle"><textPath startOffset="22.20632615414155" xlink:href="#id63">March</textPath></text><line stroke="#e1ed5e" stroke-width="0.3" x1="184.98032266829074" x2="189.97916517819016" y1="98.17113171792111" y2="98.06355123074" /><path d="M 185.9800911702706 98.14961562048488 a86.0,86.0 0 0,1 -9.607161424134198,41.387399972396054" fill="none" id="id64" stroke="none" /><text fill="#e1ed5e" style="font-size:6.75px; font-family:Arial;" text-anchor="middle"><textPath startOffset="21.466115282336823" xlink:href="#id64">April</textPath></text><path d="M 119.79798401119884 107.00284435728193 l 3.9467306379338005 1.3960179158611616 a25.186352678622608,25.186352678622608 0 0,0 -0.14809064331313876,0.40748184799726483 l -3.9221157336154353 -1.4637475608645578" fill="red" stroke="none" /><line stroke="#e1ed5e" stroke-width="0.3" x1="174.80103733775053" x2="179.2010983576182" y1="140.37084112569926" y2="142.7455964860345" /><path d="M 175.68104954172406 140.8457921977663 a86.0,86.0 0 0,1 -30.038265399797805,32.042727171017184" fill="none" id="id65" stroke="none" /><text fill="#e1ed5e" style="font-size:6.75px; font-family:Arial;" text-anchor="middle"><textPath startOffset="22.206326154141568" xlink:href="#id65">May</textPath></text><line stroke="#e1ed5e" stroke-width="0.3" x1="143.8653032363475" x2="146.44561519142675" y1="172.8068346515853" y2="177.08958963109032" /><path d="M 144.38136562736335 173.6633856474863 a86.0,86.0 0 0,1 -40.68145358897372,12.25698825130547" fill="none" id="id66" stroke="none" /><text fill="#e1ed5e" style="font-size:6.75px; font-family:Arial;" text-anchor="middle"><textPath startOffset="21.466115282336833" xlink:href="#id66">June</textPath></text><path d="M 108.92500713936063 119.00905698771935 l 3.991496496354562 8.501347190061912 a30.391748949284384,30.391748949284384 0 0,0 -0.47546010449722964,0.21826041412918548 l -3.844568396089913 -8.568794674525172" fill="red" stroke="none" /><path d="M 102.34483914955558 120.86867818915974 l 1.3182002335283272 11.731762695787303 a32.80558799069071,32.80558799069071 0 0,0 -0.5617057186018611,0.05822309440920145 l -1.1160619183208633 -11.752715158652263" fill="red" stroke="none" /><path d="M 101.98527174616119 120.90594882070398 l 0.8735942996956195 9.19940444163884 a30.240790500888174,30.240790500888174 0 0,0 -0.5186377397563089,0.044750246499971086 l -0.715112242197769 -9.213078940417475" fill="red" stroke="none" /><path d="M 101.26447882468166 120.96189622390904 l 0.8497599836999767 14.086895126957879 a35.11250177494435,35.11250177494435 0 0,0 -0.6036205756479898,0.031200288961094787 l -0.6071513396385073 -14.099435222681175" fill="red" stroke="none" /><line stroke="#e1ed5e" stroke-width="0.3" x1="102.19456741930631" x2="102.32365962044197" y1="184.97166512339345" y2="189.96999836594603" /><path d="M 102.22038585953345 185.97133177190398 a86.0,86.0 0 0,1 -42.740103519485714,-10.115201625700543" fill="none" id="id67" stroke="none" /><text fill="#e1ed5e" style="font-size:6.75px; font-family:Arial;" text-anchor="middle"><textPath startOffset="22.20632615414155" xlink:href="#id67">July</textPath></text><line stroke="#e1ed5e" stroke-width="0.3" x1="58.666819895761336" x2="56.23545636021788" y1="174.27360380694188" y2="178.64263932499728" /><path d="M 58.180547188652646 175.14741091055294 a86.0,86.0 0 0,1 -31.652253787137756,-30.449443065178592" fill="none" id="id68" stroke="none" /><text fill="#e1ed5e" style="font-size:6.75px; font-family:Arial;" text-anchor="middle"><textPath startOffset="22.20632615414155" xlink:href="#id68">August</textPath></text><path d="M 84.43433777217949 114.09645910891817 l -6.581342877343117 5.960146725169379 a29.879044039461807,29.879044039461807 0 0,0 -0.3419601817072482,-0.3841958892430933 l 6.682961908698703 -5.845976666185422" fill="red" stroke="none" /><path d="M 83.95833913139862 113.55231037782056 l -6.155831650388141 5.200567562362703 a29.058546164080685,29.058546164080685 0 0,0 -0.31951116888402686,-0.38487178572281616 l 6.244438819165704 -5.093834519526125" fill="red" stroke="none" /><path d="M 83.06392112726016 112.41649034213515 l -7.296689745220794 5.34948369288232 a30.047577411574004,30.047577411574004 0 0,0 -0.3022216923563175,-0.419759497626728 l 7.387691229952719 -5.223090589804453" fill="red" stroke="none" /><path d="M 82.85270091963577 112.12312394758628 l -9.928932522585574 7.01974573805408 a33.159791579833346,33.159791579833346 0 0,0 -0.32550139785521703,-0.468909040651859 l 10.048294827602925 -6.847795435215208" fill="red" stroke="none" /><line stroke="#e1ed5e" stroke-width="0.3" x1="26.63291911575756" x2="22.317208475507996" y1="142.92168965132927" y2="145.44649492493687" /><path d="M 25.769776987707644 143.4266507060508 a86.0,86.0 0 0,1 -11.730757126820373,-40.83630448921669" fill="none" id="id69" stroke="none" /><text fill="#e1ed5e" style="font-size:6.75px; font-family:Arial;" text-anchor="middle"><textPath startOffset="21.46611528233685" xlink:href="#id69">September</textPath></text><path d="M 81.35079622478065 109.6543875284942 l -10.57532741573939 5.474673897226812 a32.90838377913081,32.90838377913081 0 0,0 -0.256091992969981,-0.5052937975834481 l 10.667998078495637 -5.291825887940679" fill="red" stroke="none" /><path d="M 80.45479744820244 107.68017299344265 l -15.009167717402617 5.897764643357214 a37.12633694791087,37.12633694791087 0 0,0 -0.2286022735763684,-0.5968084001631475 l 15.108464270572494 -5.638532676360909" fill="red" stroke="none" /><path d="M 80.32549172779594 107.34259656027581 l -9.345761718811088 3.4878715594965253 a30.975395236297132,30.975395236297132 0 0,0 -0.1821290389265257,-0.5011408938161036 l 9.404415018742839 -3.3264828686743044" fill="red" stroke="none" /><path d="M 80.20201598880116 107.00284435728193 l -10.13158136858618 3.5836925303714393 a31.746710807522582,31.746710807522582 0 0,0 -0.17779544182658855,-0.5167567781495833 l 10.191767641355996 -3.4087630491325593" fill="red" stroke="none" /><path d="M 79.67330655649465 105.27499134158121 l -20.508034900402908 5.3220513623200985 a42.187348257375604,42.187348257375604 0 0,0 -0.17636056461388844,-0.7044727887385037 l 20.596606779311855 -4.968250734184203" fill="red" stroke="none" /><line stroke="#e1ed5e" stroke-width="0.3" x1="15.007084014347285" x2="10.007500721073583" y1="101.09737516637583" y2="101.16192664675087" /><path d="M 14.007167355692545 101.11028546245083 a86.0,86.0 0 0,1 10.666146001902534,-42.60595125391555" fill="none" id="id70" stroke="none" /><text fill="#e1ed5e" style="font-size:6.75px; font-family:Arial;" text-anchor="middle"><textPath startOffset="22.20632615414155" xlink:href="#id70">October</textPath></text><path d="M 79.01574976396665 99.18683210126434 l -8.889080638937289 -0.3444638213684772 a29.89575235321676,29.89575235321676 0 0,0 0.024352783424210756,-0.5140487682807434 l 8.88183424727958 0.4974236962722297" fill="red" stroke="none" /><path d="M 79.16333360222342 97.38593545837743 l -9.321312102545118 -1.1694054597553343 a30.394379619876965,30.394379619876965 0 0,0 0.06959444658470092,-0.5185594629583641 l 9.299801656902583 1.3296832647783579" fill="red" stroke="none" /><path d="M 79.21141760316559 97.0276538004421 l -7.573549750033561 -1.08286420819646 a28.65057192042702,28.65057192042702 0 0,0 0.07400593696555137,-0.4876066588016581 l 7.553787919628708 1.2130699793902102" fill="red" stroke="none" /><path d="M 79.46518482838121 95.60439243477599 l -9.63648778448538 -2.0627513933612636 a30.85478767560975,30.85478767560975 0 0,0 0.11564023704432577,-0.5183925078979044 l 9.599553160439017 2.228322070809127" fill="red" stroke="none" /><line stroke="#e1ed5e" stroke-width="0.3" x1="26.266209847984243" x2="21.928928074336255" y1="57.711370442889674" y2="55.22380399835377" /><path d="M 25.398753493254645 57.213857153982495 a86.0,86.0 0 0,1 29.58750427330803,-30.492523968695096" fill="none" id="id71" stroke="none" /><text fill="#e1ed5e" style="font-size:6.75px; font-family:Arial;" text-anchor="middle"><textPath startOffset="21.46611528233685" xlink:href="#id71">November</textPath></text><line stroke="#e1ed5e" stroke-width="0.3" x1="56.762969772571076" x2="54.21961505331055" y1="26.818313649435495" y2="22.513508569990535" /><path d="M 56.25429882871897 25.957352633546506 a86.0,86.0 0 0,1 42.265352541879196,-11.944610805530505" fill="none" id="id72" stroke="none" /><text fill="#e1ed5e" style="font-size:6.75px; font-family:Arial;" text-anchor="middle"><textPath startOffset="22.20632615414155" xlink:href="#id72">December</textPath></text><path d="M 91.90106846888425 80.62456947434976 l -0.7757895203183472 -1.8559554301337409 a23.011571509660715,23.011571509660715 0 0,0 0.3667782938287573,-0.14961807530725343 l 0.7437273569012094 1.869034391624571" fill="red" stroke="none" /><path d="M 92.23578459929587 80.48803036053334 l -2.2692848710158082 -5.702857947828942 a27.137771794302633,27.137771794302633 0 0,0 0.4355183790036632,-0.16897436486944142 l 2.1707833270124683 5.741075016588935" fill="red" stroke="none" /><path d="M 92.57280143429618 80.3572730644239 l -3.318117645263675 -8.775432388060153 a30.38179717885786,30.38179717885786 0 0,0 0.4907639322791273,-0.18075249798559975 l 3.1665713872119783 8.831248153852075" fill="red" stroke="none" /><path d="M 92.91201910852362 80.23233633223022 l -2.6772754465423487 -7.466651135709211 a28.932129789599145,28.932129789599145 0 0,0 0.4702407884746144,-0.16405777767887425 l 2.5483526540044488 7.5116297665602945" fill="red" stroke="none" /><path d="M 93.25333710446033 80.11325718540243 l -3.89980969077112 -11.495240468812094 a33.138742482648176,33.138742482648176 0 0,0 0.5417666449323022,-0.1786119449687265 l 3.7013602235964087 11.560666138040053" fill="red" stroke="none" /><path d="M 93.59665428221793 80.00007090966166 l -2.5643846051124544 -8.009486372128725 a29.409990508214236,29.409990508214236 0 0,0 0.4834647100892468,-0.15021483881034628 l 2.426134522312479 8.052441345821597" fill="red" stroke="none" /></svg>