<?xml version="1.0" encoding="utf-8" ?>
<svg baseProfile="full" height="200mm" version="1.1" viewBox="0,0,200,200" width="200mm" xmlns="http://www.w3.org/2000/svg" xmlns:ev="http://www.w3.org/2001/xml-events" xmlns:xlink="http://www.w3.org/1999/xlink"><defs /><rect fill="#1a1a1a" height="200" width="200" x="0" y="0" /><rect fill="#1a1a1a" height="200" width="180" x="10" y="0" /><text alignment-baseline="middle" fill="#e1ed5e" style="dominant-baseline: central; font-size:9.0px; font-family:Arial;" text-anchor="middle" x="100.0" y="100.0">2021</text><line stroke="#e1ed5e" stroke-width="0.3" x1="100.0" x2="100.0" y1="15.0" y2="10.0" /><path d="M 100.0 14.0 a86.0,86.0 0 0,1 42.46469731375804,11.215312516191453" fill="none" id="id13" stroke="none" /><text fill="#e1ed5e" style="font-size:6.75px; font-family:Arial;" text-anchor="middle"><textPath startOffset="22.20632615414155" xlink:href="#id13">January</textPath></text><path d="M 101.80526077348638 79.07773832637324 l 1.0351959476682957 -11.99751349981769 a33.04209121491681,33.04209121491681 0 0,0 0.5662389703162259,0.0537712131118855 l -1.241560045074766 11.977916742190628" fill="#ff7b0b" stroke="none" /><path d="M 104.66035177308747 79.52364482259891 l 2.6844539521320727 -11.79478186575137 a33.09641154565166,33.09641154565166 0 0,0 0.5544063632523957,0.13121007403065013 l -2.887084002346992 11.74682587957985" fill="#ff7c0b" stroke="none" /><path d="M 106.74666289553966 80.11325718540242 l 3.868114350629118 -11.401813972248629 a33.040085983385126,33.040085983385126 0 0,0 0.5370083777821968,0.1873516785723051 l -4.063804732474589 11.333541440504115" fill="#ff7b0b" stroke="none" /><path d="M 109.08828744355905 81.06846463323043 l 3.88382680043009 -8.090281572559503 a29.974227907682916,29.974227907682916 0 0,0 0.4632142002486139,0.2272971963448103 l -4.0225122676891365 8.022229216079861" fill="#ff4f07" stroke="none" /><line stroke="#e1ed5e" stroke-width="0.3" x1="143.23703022742887" x2="145.7803849466894" y1="26.81831364943548" y2="22.513508569990506" /><path d="M 143.74570117128098 25.957352633546492 a86.0,86.0 0 0,1 28.547481713284135,27.462654790039103" fill="none" id="id14" stroke="none" /><text fill="#e1ed5e" style="font-size:6.75px; font-family:Arial;" text-anchor="middle"><textPath startOffset="19.985693538727396" xlink:href="#id14">February</textPath></text><line stroke="#e1ed5e" stroke-width="0.3" x1="172.23445277983987" x2="176.4835382374775" y1="55.19839476539836" y2="52.563006222186495" /><path d="M 173.08426987136738 54.67131705675599 a86.0,86.0 0 0,1 12.851231095245387,41.99856678651699" fill="none" id="id15" stroke="none" /><text fill="#e1ed5e" style="font-size:6.75px; font-family:Arial;" text-anchor="middle"><textPath startOffset="22.20632615414155" xlink:href="#id15">March</textPath></text><line stroke="#e1ed5e" stroke-width="0.3" x1="184.98032266829074" x2="189.97916517819016" y1="98.17113171792111" y2="98.06355123074" /><path d="M 185.9800911702706 98.14961562048488 a86.0,86.0 0 0,1 -9.607161424134198,41.387399972396054" fill="none" id="id16" stroke="none" /><text fill="#e1ed5e" style="font-size:6.75px; font-family:Arial;" text-anchor="middle"><textPath startOffset="21.466115282336823" xlink:href="#id16">April</textPath></text><line stroke="#e1ed5e" stroke-width="0.3" x1="174.80103733775053" x2="179.2010983576182" y1="140.37084112569926" y2="142.7455964860345" /><path d="M 175.68104954172406 140.8457921977663 a86.0,86.0 0 0,1 -30.038265399797805,32.042727171017184" fill="none" id="id17" stroke="none" /><text fill="#e1ed5e" style="font-size:6.75px; font-family:Arial;" text-anchor="middle"><textPath startOffset="22.206326154141568" xlink:href="#id17">May</textPath></text><path d="M 116.71984013943494 112.70617746262583 l 6.6569973847670925 5.058959262390732 a29.361141249813024,29.361141249813024 0 0,0 -0.309261156340762,0.3997617333938409 l -6.568929411208262 -5.172798989897825" fill="#ff4606" stroke="none" /><path d="M 116.498646956653 112.99209946851258 l 5.514301383487858 4.342316813121534 a28.01877731898185,28.01877731898185 0 0,0 -0.3016449370450247,0.3763484389930378 l -5.438738534387979 -4.436593085692822" fill="#ff3204" stroke="none" /><path d="M 116.27256486870786 113.27417163493432 l 3.3410756337103953 2.725446895741299 a25.311710469370503,25.311710469370503 0 0,0 -0.2783131046149584,0.33524606334528223 l -3.2936665292018934 -2.782554216200352" fill="#ff0a01" stroke="none" /><path d="M 116.0416608686014 113.55231037782055 l 21.85974316335461 18.467540646559705 a49.616401393259835,49.616401393259835 0 0,0 -0.5567846017364061,0.6476662799564948 l -21.538616052047427 -18.841084025677727" fill="#adff20" stroke="none" /><path d="M 115.80600337817218 113.82643327865902 l 8.380481407913921 7.330896005601375 a32.13438390183009,32.13438390183009 0 0,0 -0.3677721329908459,0.4131958901408288 l -8.253050425274736 -7.474066065483071" fill="#ff6e0a" stroke="none" /><path d="M 115.56566222782051 114.09645910891815 l 6.271891816266243 5.679903959726023 a29.46155635487106,29.46155635487106 0 0,0 -0.3436530502458157,0.3729675137401063 l -6.173192358024705 -5.7870227282674644" fill="#ff4806" stroke="none" /><path d="M 115.32070863581623 114.36230785411682 l 8.676480888586585 8.133715781326362 a32.892798367979076,32.892798367979076 0 0,0 -0.3907875095058794,0.4097391413690405 l -8.535186827701741 -8.28186203927791" fill="#ff790b" stroke="none" /><path d="M 114.55890576462653 115.13401014063108 l 8.40536283122602 8.737390596519276 a33.12403063179483,33.12403063179483 0 0,0 -0.41430932702446277,0.3917553285859499 l -8.253717669810749 -8.880780561851148" fill="#ff7c0b" stroke="none" /><path d="M 114.29624159901734 115.38237550388516 l 3.3812131126223255 3.6380953271377257 a25.966723237941743,25.966723237941743 0 0,0 -0.33002524433694785,0.3014702358787839 l -3.3180883188185137 -3.6957583296030925" fill="#ff1402" stroke="none" /><path d="M 114.0293411484842 115.62618273729858 l 6.731367564958842 7.4975423670081724 a31.075934241531275,31.075934241531275 0 0,0 -0.40111283889233673,0.35393544373240005 l -6.601312373159918 -7.612300952512861" fill="#ff5f08" stroke="none" /><path d="M 113.75828350139079 115.86535959552629 l 7.583639667439064 8.745071313195107 a32.57531264711339,32.57531264711339 0 0,0 -0.4267901485960585,0.36371982364809835 l -7.431984042265959 -8.874315527066152" fill="#ff740a" stroke="none" /><path d="M 113.48314897796784 116.09983520530334 l 8.328132813370106 9.944380654862908 a33.9710640568129,33.9710640568129 0 0,0 -0.45153994016086896,0.3715866300697803 l -8.155722744664544 -10.086262403789867" fill="#ff880c" stroke="none" /><path d="M 113.20401910651253 116.32954008644616 l 12.885544090248187 15.935678906553205 a41.49348942260675,41.49348942260675 0 0,0 -0.5592581562895564,0.44430850289196594 l -12.60932844124128 -16.155121323450295" fill="#ffed16" stroke="none" /><path d="M 112.63410532772338 116.77436683061366 l 7.324591039960932 9.724897315754028 a33.17469760218445,33.17469760218445 0 0,0 -0.4590983678578104,0.33962999704934743 l -7.156107701684557 -9.849537261543144" fill="#ff7d0b" stroke="none" /><path d="M 112.04921762599082 117.19931262002967 l 5.28205605667247 7.539720520879916 a30.2058406307522,30.2058406307522 0 0,0 -0.42840960362132985,0.29466403181807915 l -5.151489568428257 -7.62952534206309" fill="#ff5207" stroke="none" /><path d="M 111.45004920935366 117.60387380957326 l 3.224114911533046 4.956914246606544 a26.91319844170485,26.91319844170485 0 0,0 -0.3905210157290315,0.24924898910062596 l -3.1383120937570843 -5.011677664530979" fill="#ff2203" stroke="none" /><line stroke="#e1ed5e" stroke-width="0.3" x1="143.8653032363475" x2="146.44561519142675" y1="172.8068346515853" y2="177.08958963109032" /><path d="M 144.38136562736335 173.6633856474863 a86.0,86.0 0 0,1 -40.68145358897372,12.25698825130547" fill="none" id="id18" stroke="none" /><text fill="#e1ed5e" style="font-size:6.75px; font-family:Arial;" text-anchor="middle"><textPath startOffset="21.466115282336833" xlink:href="#id18">June</textPath></text><path d="M 108.59647513512805 119.15986991738527 l 3.8777543890864408 8.642759793820927 a30.472817741082466,30.472817741082466 0 0,0 -0.48042475899975307,0.2106040959632702 l -3.7284089554289337 -8.708228443078651" fill="#ff5608" stroke="none" /><path d="M 107.59598834532513 119.57807347666477 l 6.10723711498589 15.740932126389424 a37.884172748057864,37.884172748057864 0 0,0 -0.6099889032371628,0.23064560852866114 l -5.8353779909884524 -15.843725985024717" fill="#ffbd11" stroke="none" /><line stroke="#e1ed5e" stroke-width="0.3" x1="102.19456741930631" x2="102.32365962044197" y1="184.97166512339345" y2="189.96999836594603" /><path d="M 102.22038585953345 185.97133177190398 a86.0,86.0 0 0,1 -42.740103519485714,-10.115201625700543" fill="none" id="id19" stroke="none" /><text fill="#e1ed5e" style="font-size:6.75px; font-family:Arial;" text-anchor="middle"><textPath startOffset="22.20632615414155" xlink:href="#id19">July</textPath></text><line stroke="#e1ed5e" stroke-width="0.3" x1="58.666819895761336" x2="56.23545636021788" y1="174.27360380694188" y2="178.64263932499728" /><path d="M 58.180547188652646 175.14741091055294 a86.0,86.0 0 0,1 -31.652253787137756,-30.449443065178592" fill="none" id="id20" stroke="none" /><text fill="#e1ed5e" style="font-size:6.75px; font-family:Arial;" text-anchor="middle"><textPath startOffset="22.20632615414155" xlink:href="#id20">August</textPath></text><path d="M 84.43433777217949 114.09645910891817 l -8.960764011516957 8.114980373096587 a33.089176900262494,33.089176900262494 0 0,0 -0.37869956382851044,-0.42547297452784755 l 9.099122424993805 -7.959533228827876" fill="#ff7c0b" stroke="none" /><path d="M 83.28015986056508 112.70617746262583 l -9.65168226403234 7.334758385065394 a33.122444105588755,33.122444105588755 0 0,0 -0.34106454082644566,-0.45691168840770957 l 9.776508071553872 -7.167533817148376" fill="#ff7c0b" stroke="none" /><path d="M 82.6465618267979 111.8261652097733 l -7.11881820158592 4.851391367521821 a29.614729873193717,29.614729873193717 0 0,0 -0.2834508923148577,-0.42372062488861156 l 7.201272199311507 -4.7281338284273895" fill="#ff4a06" stroke="none" /><line stroke="#e1ed5e" stroke-width="0.3" x1="26.63291911575756" x2="22.317208475507996" y1="142.92168965132927" y2="145.44649492493687" /><path d="M 25.769776987707644 143.4266507060508 a86.0,86.0 0 0,1 -11.730757126820373,-40.83630448921669" fill="none" id="id21" stroke="none" /><text fill="#e1ed5e" style="font-size:6.75px; font-family:Arial;" text-anchor="middle"><textPath startOffset="21.46611528233685" xlink:href="#id21">September</textPath></text><line stroke="#e1ed5e" stroke-width="0.3" x1="15.007084014347285" x2="10.007500721073583" y1="101.09737516637583" y2="101.16192664675087" /><path d="M 14.007167355692545 101.11028546245083 a86.0,86.0 0 0,1 10.666146001902534,-42.60595125391555" fill="none" id="id22" stroke="none" /><text fill="#e1ed5e" style="font-size:6.75px; font-family:Arial;" text-anchor="middle"><textPath startOffset="22.20632615414155" xlink:href="#id22">October</textPath></text><path d="M 81.26839172434947 90.50648371742162 l -9.046319723004919 -4.584837688464558 a31.14182612552556,31.14182612552556 0 0,0 0.2464513207728697,-0.4760655078533064 l 8.966058969071936 4.7398759185782" fill="#ff6008" stroke="none" /><path d="M 81.43458229118936 90.18545643968196 l -23.78437162918167 -12.573525415407989 a47.90334319683954,47.90334319683954 0 0,0 0.3916483832026318,-0.7256649729936038 l 23.564415146760567 12.981071371734066" fill="#c1ff1e" stroke="none" /><path d="M 81.6062741919709 89.86733742301443 l -11.08998051497634 -6.1092043948240455 a33.661360359783316,33.661360359783316 0 0,0 0.283945370068452,-0.5051071298759664 l 10.983177503615456 6.299195034634797" fill="#ff840c" stroke="none" /><line stroke="#e1ed5e" stroke-width="0.3" x1="26.266209847984243" x2="21.928928074336255" y1="57.711370442889674" y2="55.22380399835377" /><path d="M 25.398753493254645 57.213857153982495 a86.0,86.0 0 0,1 29.58750427330803,-30.492523968695096" fill="none" id="id23" stroke="none" /><text fill="#e1ed5e" style="font-size:6.75px; font-family:Arial;" text-anchor="middle"><textPath startOffset="21.46611528233685" xlink:href="#id23">November</textPath></text><path d="M 82.15384107792192 88.93136811851018 l -8.880698422791301 -5.508030166132692 a31.45012922348789,31.45012922348789 0 0,0 0.28929986002267866,-0.4576029030442199 l 8.78457096652266 5.660080716891128" fill="#ff6409" stroke="none" /><path d="M 82.54541684631803 88.32363383020206 l -23.697909323268075 -15.85288312421123 a49.51148557412849,49.51148557412849 0 0,0 0.4799679586327458,-0.7042937543581884 l 23.421516898966587 16.258454901839833" fill="#aeff20" stroke="none" /><path d="M 82.7489923806493 88.02491185347247 l -38.69150592595942 -26.85838440332768 a68.09995163028799,68.09995163028799 0 0,0 0.6767428808194006,-0.9572048119022948 l 38.22345042533614 27.52041571556176" fill="#38ff84" stroke="none" /><path d="M 82.95767976084542 87.72973835380427 l -11.895621827407833 -8.564701884379794 a35.65810141283654,35.65810141283654 0 0,0 0.36292711612874284,-0.495032178533913 l 11.746432098765457 8.768196506585207" fill="#ff9f0e" stroke="none" /><path d="M 83.17141714833178 87.43820079747576 l -5.330676035456838 -3.9791159220800774 a27.652027549277364,27.652027549277364 0 0,0 0.2880077965053681,-0.37898450030663294 l 5.261392298727361 4.070285198267737" fill="#ff2d04" stroke="none" /><path d="M 83.6137871275137 86.86637796730984 l -9.660733392384648 -7.743120507558552 a33.380859617704644,33.380859617704644 0 0,0 0.36321794087770315,-0.4452622481433034 l 9.526016959430553 7.908266925309937" fill="#ff800b" stroke="none" /><path d="M 84.07557802195018 86.31012108654704 l -11.403316441571008 -9.803182904351322 a36.037886185324375,36.037886185324375 0 0,0 0.4084433395982301,-0.46692134373122013 l 11.232881238394933 9.998019804285486" fill="#ffa50f" stroke="none" /><path d="M 84.5562425177563 85.77008943001954 l -24.91942491867397 -22.960810441097138 a54.884754011050816,54.884754011050816 0 0,0 0.6461573674830883,-0.6892756276113908 l 24.520500229220424 23.386355485586577" fill="#71ff27" stroke="none" /><path d="M 84.80347519578584 85.50635884689758 l -20.01750099403918 -19.09163311529091 a48.66208237019101,48.66208237019101 0 0,0 0.5833326254856922,-0.6011755469484119 l 19.685904104850373 19.433372857789447" fill="#b8ff1f" stroke="none" /><path d="M 85.83668400450813 84.49514656593479 l -9.653925546155493 -10.568337295034747 a35.31391042421099,35.31391042421099 0 0,0 0.4523358994825164,-0.4061116367466596 l 9.470578659077004 10.732947940550684" fill="#ff9b0e" stroke="none" /><path d="M 86.10567301691215 84.25364557470407 l -41.68298094926353 -47.23906327588782 a84.0,84.0 0 0,0 1.092424805412906,-0.9473400263212777 l 40.863662345203856 47.94956829562878" fill="#4dd2ff" stroke="none" /><path d="M 86.37877921826538 84.01681056812374 l -9.373481550798767 -10.998876948203689 a35.45120930942775,35.45120930942775 0 0,0 0.46785883170442494,-0.39181831665275646 l 9.182765182135231 11.158596422250259" fill="#ff9c0e" stroke="none" /><path d="M 86.93701828274178 83.55741782278169 l -7.563912602678953 -9.520816705004915 a33.1597172907624,33.1597172907624 0 0,0 0.44997332895163683,-0.3512113206054266 l 7.398906718567891 9.649606414833563" fill="#ff7d0b" stroke="none" /><path d="M 87.51073957382395 83.11751280151077 l -3.6800623083729804 -4.974562359235878 a27.187821042938612,27.187821042938612 0 0,0 0.37862883819726706,-0.27508995327957597 l 3.593888153821932 5.037171547332122" fill="#ff2603" stroke="none" /><path d="M 87.80319425747018 82.90503203632743 l -5.4924459644693995 -7.6981785056561876 a30.456686257752402,30.456686257752402 0 0,0 0.42939411392336896,-0.30081801757338017 l 5.359120710962371 7.791581365993511" fill="#ff5608" stroke="none" /><path d="M 88.39885842347998 82.49532879139004 l -19.03790624534358 -28.725818672841903 a55.4617836542377,55.4617836542377 0 0,0 0.800321393145336,-0.5205512964895889 l 18.540617826413957 29.04926889349103" fill="#6bff28" stroke="none" /><line stroke="#e1ed5e" stroke-width="0.3" x1="56.762969772571076" x2="54.21961505331055" y1="26.818313649435495" y2="22.513508569990535" /><path d="M 56.25429882871897 25.957352633546506 a86.0,86.0 0 0,1 42.265352541879196,-11.944610805530505" fill="none" id="id24" stroke="none" /><text fill="#e1ed5e" style="font-size:6.75px; font-family:Arial;" text-anchor="middle"><textPath startOffset="22.20632615414155" xlink:href="#id24">December</textPath></text><path d="M 89.3179101791058 81.91981866633112 l -1.8657429615649221 -3.1578999645863663 a24.667877994830747,24.667877994830747 0 0,0 0.3674377542823754,-0.21284366374632716 l 1.8111084748172266 3.1895477857227403" fill="#ff0000" stroke="none" /><path d="M 89.63071344664047 81.73862282372117 l -5.945200483922381 -10.470107838839445 a33.040289321729695,33.040289321729695 0 0,0 0.49698245175354916,-0.27657019632936825 l 5.764093943096786 10.570893432728997" fill="#ff7b0b" stroke="none" /><path d="M 89.94658935756843 81.56283822128135 l -8.798566310879643 -16.135876297522465 a39.37882675841669,39.37882675841669 0 0,0 0.5979111416107086,-0.3193834248743103 l 8.519510122740629 16.284938448898522" fill="#ffd113" stroke="none" /><path d="M 90.26544431104013 81.39251694778311 l -5.176101494845721 -9.894054122175076 a32.16621393568445,32.16621393568445 0 0,0 0.49281628513250614,-0.25243964233323135 l 5.0050247221244515 9.981686289820813" fill="#ff6f0a" stroke="none" /><path d="M 90.58718382345135 81.22770947309562 l -25.494914699826605 -50.84535135150978 a77.87917395330132,77.87917395330132 0 0,0 1.2035252213971195,-0.590564599286915 l 24.615918211419057 51.27667111093152" fill="#45fff0" stroke="none" /><path d="M 91.56875222667455 80.76684994638697 l -4.825837163687078 -11.00857818425699 a33.019879282643494,33.019879282643494 0 0,0 0.5225258191155113,-0.22371828623553972 l 4.635627586781259 11.090015998455316" fill="#ff7b0b" stroke="none" /><path d="M 92.23578459929587 80.48803036053334 l -1.6709160740261626 -4.199118909495807 a25.519353951896694,25.519353951896694 0 0,0 0.4095453285772012,-0.15889722481952293 l 1.5983875804492849 4.2272588382058816" fill="#ff0d01" stroke="none" /><path d="M 92.57280143429618 80.3572730644239 l -2.3393264740449133 -6.186821415413974 a27.614318375947168,27.614318375947168 0 0,0 0.4460602311840283,-0.164287747602222 l 2.2324839170883153 6.226172430822518" fill="#ff2c04" stroke="none" /><path d="M 93.94186890950719 79.89281104454417 l -3.4751286481571086 -11.534096461311247 a33.046240089757255,33.046240089757255 0 0,0 0.5460651704098196,-0.159411397335538 l 3.2760732600238676 11.592206187565484" fill="#ff7b0b" stroke="none" /><path d="M 95.33964822691252 79.52364482259891 l -5.551593347475313 -24.392235332933023 a46.01602153086934,46.01602153086934 0 0,0 0.7738520385302258,-0.16913408254823883 l 5.1308985847915665 24.48418291357713" fill="#d8ff1c" stroke="none" /><path d="M 98.91598698831166 79.02799685794201 l -0.628892959678449 -12.166962005237043 a33.18320445497058,33.18320445497058 0 0,0 0.5706865952196213,-0.024574965261301828 l 0.4193655320695037 12.175984697022537" fill="#ff7d0b" stroke="none" /></svg>