<?xml version="1.0" encoding="utf-8" ?>
<svg baseProfile="full" height="200mm" version="1.1" viewBox="0,0,200,200" width="200mm" xmlns="http://www.w3.org/2000/svg" xmlns:ev="http://www.w3.org/2001/xml-events" xmlns:xlink="http://www.w3.org/1999/xlink"><defs /><rect fill="#1a1a1a" height="200" width="200" x="0" y="0" /><rect fill="#1a1a1a" height="200" width="180" x="10" y="0" /><text alignment-baseline="middle" fill="#e1ed5e" style="dominant-baseline: central; font-size:9.0px; font-family:Arial;" text-anchor="middle" x="100.0" y="100.0">2025</text><line stroke="#e1ed5e" stroke-width="0.3" x1="100.0" x2="100.0" y1="15.0" y2="10.0" /><path d="M 100.0 14.0 a86.0,86.0 0 0,1 42.46469731375804,11.215312516191453" fill="none" id="id61" stroke="none" /><text fill="#e1ed5e" style="font-size:6.75px; font-family:Arial;" text-anchor="middle"><textPath startOffset="22.20632615414155" xlink:href="#id61">January</textPath></text><line stroke="#e1ed5e" stroke-width="0.3" x1="143.23703022742887" x2="145.7803849466894" y1="26.81831364943548" y2="22.513508569990506" /><path d="M 143.74570117128098 25.957352633546492 a86.0,86.0 0 0,1 28.547481713284135,27.462654790039103" fill="none" id="id62" stroke="none" /><text fill="#e1ed5e" style="font-size:6.75px; font-family:Arial;" text-anchor="middle"><textPath startOffset="19.985693538727396" xlink:href="#id62">February</textPath></text><path d="M 117.45458315368197 88.32363383020206 l 52.36374946104589 -35.02909850939381 a84.0,84.0 0 0,0 0.7936134585683003,1.208727744089304 l -52.95895955497212 34.12255270132683" fill="red" stroke="none" /><line stroke="#e1ed5e" stroke-width="0.3" x1="172.23445277983987" x2="176.4835382374775" y1="55.19839476539836" y2="52.563006222186495" /><path d="M 173.08426987136738 54.67131705675599 a86.0,86.0 0 0,1 12.851231095245387,41.99856678651699" fill="none" id="id63" stroke="none" /><text fill="#e1ed5e" style="font-size:6.75px; font-family:Arial;" text-anchor="middle"><textPath startOffset="22.20632615414155" xlink:href="#id63">March</textPath></text><line stroke="#e1ed5e" stroke-width="0.3" x1="184.98032266829074" x2="189.97916517819016" y1="98.17113171792111" y2="98.06355123074" /><path d="M 185.9800911702706 98.14961562048488 a86.0,86.0 0 0,1 -9.607161424134198,41.387399972396054" fill="none" id="id64" stroke="none" /><text fill="#e1ed5e" style="font-size:6.75px; font-family:Arial;" text-anchor="middle"><textPath startOffset="21.466115282336823" xlink:href="#id64">April</textPath></text><path d="M 119.79798401119884 107.00284435728193 l 4.016276169611637 1.4206172151538992 a25.260120601882292,25.260120601882292 0 0,0 -0.14852438373402443,0.4086753153514439 l -3.991227524872386 -1.489540327511474" fill="red" stroke="none" /><line stroke="#e1ed5e" stroke-width="0.3" x1="174.80103733775053" x2="179.2010983576182" y1="140.37084112569926" y2="142.7455964860345" /><path d="M 175.68104954172406 140.8457921977663 a86.0,86.0 0 0,1 -30.038265399797805,32.042727171017184" fill="none" id="id65" stroke="none" /><text fill="#e1ed5e" style="font-size:6.75px; font-family:Arial;" text-anchor="middle"><textPath startOffset="22.206326154141568" xlink:href="#id65">May</textPath></text><line stroke="#e1ed5e" stroke-width="0.3" x1="143.8653032363475" x2="146.44561519142675" y1="172.8068346515853" y2="177.08958963109032" /><path d="M 144.38136562736335 173.6633856474863 a86.0,86.0 0 0,1 -40.68145358897372,12.25698825130547" fill="none" id="id66" stroke="none" /><text fill="#e1ed5e" style="font-size:6.75px; font-family:Arial;" text-anchor="middle"><textPath startOffset="21.466115282336833" xlink:href="#id66">June</textPath></text><path d="M 108.92500713936063 119.00905698771935 l 3.675594678417581 7.8285190829329805 a29.648451148723538,29.648451148723538 0 0,0 -0.46383167039437617,0.21292237037124168 l -3.5402950122557857 -7.890628523638297" fill="red" stroke="none" /><path d="M 102.34483914955558 120.86867818915974 l 1.32462951374966 11.788982219758639 a32.86316758401743,32.86316758401743 0 0,0 -0.5626916112142895,0.05832528620955133 l -1.1215053059297677 -11.810036874423949" fill="red" stroke="none" /><path d="M 101.98527174616119 120.90594882070398 l 0.8714490051762729 9.176813369402247 a30.218097796479626,30.218097796479626 0 0,0 -0.5182485537354254,0.0447166658924799 l -0.7133561336993057 -9.19045428757339" fill="red" stroke="none" /><path d="M 101.26447882468166 120.96189622390904 l 0.8001184365070001 13.26396243694986 a34.28807318768433,34.28807318768433 0 0,0 -0.5894477872317095,0.03046771768733113 l -0.5716825808618109 -13.275769961399392" fill="red" stroke="none" /><line stroke="#e1ed5e" stroke-width="0.3" x1="102.19456741930631" x2="102.32365962044197" y1="184.97166512339345" y2="189.96999836594603" /><path d="M 102.22038585953345 185.97133177190398 a86.0,86.0 0 0,1 -42.740103519485714,-10.115201625700543" fill="none" id="id67" stroke="none" /><text fill="#e1ed5e" style="font-size:6.75px; font-family:Arial;" text-anchor="middle"><textPath startOffset="22.20632615414155" xlink:href="#id67">July</textPath></text><line stroke="#e1ed5e" stroke-width="0.3" x1="58.666819895761336" x2="56.23545636021788" y1="174.27360380694188" y2="178.64263932499728" /><path d="M 58.180547188652646 175.14741091055294 a86.0,86.0 0 0,1 -31.652253787137756,-30.449443065178592" fill="none" id="id68" stroke="none" /><text fill="#e1ed5e" style="font-size:6.75px; font-family:Arial;" text-anchor="middle"><textPath startOffset="22.20632615414155" xlink:href="#id68">August</textPath></text><path d="M 84.43433777217949 114.09645910891817 l -5.865669496178674 5.312023927355183 a28.913512295004978,28.913512295004978 0 0,0 -0.33090984788992434,-0.3717807220555453 l 5.956238193716936 -5.210269035558774" fill="red" stroke="none" /><path d="M 83.95833913139862 113.55231037782056 l -6.067944381307789 5.126318670144363 a28.943493697518456,28.943493697518456 0 0,0 -0.3182461177053919,-0.3833479500839791 l 6.155286498906717 -5.021109462946622" fill="red" stroke="none" /><path d="M 83.06392112726016 112.41649034213515 l -7.246502516942406 5.3126895069376525 a29.98534743486183,29.98534743486183 0 0,0 -0.301595776708622,-0.41889015553620845 l 7.336878086026635 -5.187165745950306" fill="red" stroke="none" /><path d="M 82.85270091963577 112.12312394758628 l -9.694780689078618 6.854200617107889 a32.87302988747581,32.87302988747581 0 0,0 -0.32268650284934874,-0.46485397445111565 l 9.8113280990901 -6.6863053804697605" fill="red" stroke="none" /><line stroke="#e1ed5e" stroke-width="0.3" x1="26.63291911575756" x2="22.317208475507996" y1="142.92168965132927" y2="145.44649492493687" /><path d="M 25.769776987707644 143.4266507060508 a86.0,86.0 0 0,1 -11.730757126820373,-40.83630448921669" fill="none" id="id69" stroke="none" /><text fill="#e1ed5e" style="font-size:6.75px; font-family:Arial;" text-anchor="middle"><textPath startOffset="21.46611528233685" xlink:href="#id69">September</textPath></text><path d="M 81.35079622478065 109.6543875284942 l -10.567753684359172 5.470753100464513 a32.89985535288261,32.89985535288261 0 0,0 -0.25602562502892806,-0.5051628473394225 l 10.660357979174366 -5.288036041422406" fill="red" stroke="none" /><path d="M 80.45479744820244 107.68017299344265 l -14.800718728336026 5.815855832635147 a36.90237258843199,36.90237258843199 0 0,0 -0.22722323201218766,-0.5932081577998437 l 14.898636239941723 -5.560224108002146" fill="red" stroke="none" /><path d="M 80.32549172779594 107.34259656027581 l -8.533147614987834 3.184601081728401 a30.108034489884098,30.108034489884098 0 0,0 -0.17702913372945858,-0.4871081450359014 l 8.586701009722518 -3.037245139686383" fill="red" stroke="none" /><path d="M 80.20201598880116 107.00284435728193 l -9.844878830057374 3.4822815355439274 a31.44260139387222,31.44260139387222 0 0,0 -0.17609229632936182,-0.5118066401099071 l 9.903361957329965 -3.312302192344723" fill="red" stroke="none" /><path d="M 79.67330655649465 105.27499134158121 l -20.350367761944987 5.281135076917901 a42.024458512576786,42.024458512576786 0 0,0 -0.17567961810861693,-0.7017527459409509 l 20.43825869434866 -4.9300544915795586" fill="red" stroke="none" /><line stroke="#e1ed5e" stroke-width="0.3" x1="15.007084014347285" x2="10.007500721073583" y1="101.09737516637583" y2="101.16192664675087" /><path d="M 14.007167355692545 101.11028546245083 a86.0,86.0 0 0,1 10.666146001902534,-42.60595125391555" fill="none" id="id70" stroke="none" /><text fill="#e1ed5e" style="font-size:6.75px; font-family:Arial;" text-anchor="middle"><textPath startOffset="22.20632615414155" xlink:href="#id70">October</textPath></text><path d="M 79.01574976396665 99.18683210126434 l -9.069273668221202 -0.35144654342628034 a30.076080626678937,30.076080626678937 0 0,0 0.024499677047659364,-0.5171494605049834 l 9.061880382940043 0.5075071105542729" fill="red" stroke="none" /><path d="M 79.16333360222342 97.38593545837743 l -9.4575833318257 -1.186501370478544 a30.531719046456143,30.531719046456143 0 0,0 0.06990891463789281,-0.5209026152181107 l 9.435758418129975 1.349122327761314" fill="red" stroke="none" /><path d="M 79.21141760316559 97.0276538004421 l -7.652250898239256 -1.0941168782585446 a28.73007345067909,28.73007345067909 0 0,0 0.07421129360739574,-0.4889597024910999 l 7.632283711192558 1.2256756931417365" fill="red" stroke="none" /><path d="M 79.46518482838121 95.60439243477599 l -9.834399300908261 -2.1051156100129775 a31.057182574718688,31.057182574718688 0 0,0 0.11639879012061291,-0.5217929526015884 l 9.796706123785611 2.2740867321645255" fill="red" stroke="none" /><line stroke="#e1ed5e" stroke-width="0.3" x1="26.266209847984243" x2="21.928928074336255" y1="57.711370442889674" y2="55.22380399835377" /><path d="M 25.398753493254645 57.213857153982495 a86.0,86.0 0 0,1 29.58750427330803,-30.492523968695096" fill="none" id="id71" stroke="none" /><text fill="#e1ed5e" style="font-size:6.75px; font-family:Arial;" text-anchor="middle"><textPath startOffset="21.46611528233685" xlink:href="#id71">November</textPath></text><line stroke="#e1ed5e" stroke-width="0.3" x1="56.762969772571076" x2="54.21961505331055" y1="26.818313649435495" y2="22.513508569990535" /><path d="M 56.25429882871897 25.957352633546506 a86.0,86.0 0 0,1 42.265352541879196,-11.944610805530505" fill="none" id="id72" stroke="none" /><text fill="#e1ed5e" style="font-size:6.75px; font-family:Arial;" text-anchor="middle"><textPath startOffset="22.20632615414155" xlink:href="#id72">December</textPath></text><path d="M 91.90106846888425 80.62456947434976 l -1.5320617007934114 -3.6652186687449118 a24.9725358330359,24.9725358330359 0 0,0 0.39803383621901356,-0.162367995828171 l 1.4687439949860173 3.6910475507566596" fill="red" stroke="none" /><path d="M 92.23578459929587 80.48803036053334 l -2.2562066393682927 -5.669991515655887 a27.102398887907878,27.102398887907878 0 0,0 0.4349506997199526,-0.1687541141267885 l 2.1582727746486636 5.707988333673227" fill="red" stroke="none" /><path d="M 92.57280143429618 80.3572730644239 l -3.3077982378544517 -8.748140630598284 a30.352619615651946,30.352619615651946 0 0,0 0.4902926206062543,-0.18057890991891778 l 3.156723291475628 8.803782808323524" fill="red" stroke="none" /><path d="M 92.91201910852362 80.23233633223022 l -2.682442526997974 -7.4810616018426535 a28.947438618901806,28.947438618901806 0 0,0 0.47048960651926786,-0.16414458540898344 l 2.553270916415421 7.526127040423847" fill="red" stroke="none" /><path d="M 93.25333710446033 80.11325718540243 l -3.938774622275314 -11.610095113783995 a33.26002667518269,33.26002667518269 0 0,0 0.543749451917424,-0.1792656452572602 l 3.7383423481154807 11.676174483300489" fill="red" stroke="none" /><path d="M 93.59665428221793 80.00007090966166 l -2.571057640408658 -8.030328637816611 a29.431874964777485,29.431874964777485 0 0,0 0.48382446411381397,-0.15032661613697215 l 2.432447803584115 8.073395388836108" fill="red" stroke="none" /></svg>