<?xml version="1.0" encoding="utf-8" ?>
<svg baseProfile="full" height="200mm" version="1.1" viewBox="0,0,200,200" width="200mm" xmlns="http://www.w3.org/2000/svg" xmlns:ev="http://www.w3.org/2001/xml-events" xmlns:xlink="http://www.w3.org/1999/xlink"><defs /><rect fill="#1a1a1a" height="200" width="200" x="0" y="0" /><rect fill="#1a1a1a" height="200" width="180" x="10" y="0" /><text alignment-baseline="middle" fill="#e1ed5e" style="dominant-baseline: central; font-size:9.0px; font-family:Arial;" text-anchor="middle" x="100.0" y="100.0">2023</text><line stroke="#e1ed5e" stroke-width="0.3" x1="100.0" x2="100.0" y1="15.0" y2="10.0" /><path d="M 100.0 14.0 a86.0,86.0 0 0,1 42.46469731375804,11.215312516191453" fill="none" id="id13" stroke="none" /><text fill="#e1ed5e" style="font-size:6.75px; font-family:Arial;" text-anchor="middle"><textPath startOffset="22.20632615414155" xlink:href="#id13">January</textPath></text><path d="M 101.44485096284872 79.0497635885617 l 0.7989338200763744 -11.584483685910854 a32.61200058207011,32.61200058207011 0 0,0 0.5596992835380528,0.04344343646633589 l -0.9982232929767683 11.569014987256054" fill="#ff860c" stroke="none" /><path d="M 102.16513564639614 79.11191278185805 l 0.7751525730809276 -7.478263350766145 a28.51832988468623,28.51832988468623 0 0,0 0.48784445975585483,0.05481500925743953 l -0.9037637363465076 7.463812388038105" fill="#ff4d07" stroke="none" /><path d="M 102.52436894288641 79.15227682838746 l 7.57310682865922 -62.54316951483763 a84.0,84.0 0 0,0 1.4339410859686157,0.1861667073434532 l -8.648562643135682 62.40354448433004" fill="#4dd2ff" stroke="none" /><path d="M 105.36241919743992 79.69619591428918 l 8.435400021203463 -31.939075090750542 a54.0342321111044,54.0342321111044 0 0,0 0.8972309900627642,0.24524712268115825 l -8.983928900489937 31.789141427243088" fill="#73ff27" stroke="none" /><path d="M 105.71112130821622 79.79150937346287 l 1.216744733040269 -4.30538474067408 a25.474014473670202,25.474014473670202 0 0,0 0.4209396293437411,0.12288382073009169 l -1.2906745801074373 4.283802591025285" fill="#ff2103" stroke="none" /><line stroke="#e1ed5e" stroke-width="0.3" x1="143.23703022742887" x2="145.7803849466894" y1="26.81831364943548" y2="22.513508569990506" /><path d="M 143.74570117128098 25.957352633546492 a86.0,86.0 0 0,1 28.547481713284135,27.462654790039103" fill="none" id="id14" stroke="none" /><text fill="#e1ed5e" style="font-size:6.75px; font-family:Arial;" text-anchor="middle"><textPath startOffset="19.985693538727396" xlink:href="#id14">February</textPath></text><path d="M 110.99172775467656 82.1063720568725 l 6.2246652105946785 -10.133242547016494 a32.892395112030755,32.892395112030755 0 0,0 0.4798857092824004,0.30050438712783956 l -6.398170072249342 10.024593818565709" fill="#ff8a0c" stroke="none" /><path d="M 111.2981086023043 82.29822771554956 l 1.4903720720696632 -2.3351012074269653 a23.770181683957226,23.770181683957226 0 0,0 0.34300708825417076,0.22310135156340244 l -1.530346186108114 2.3091009317040347" fill="#ff0801" stroke="none" /><path d="M 111.60114157652 82.49532879139004 l 16.70521894558794 -25.20608538233837 a51.23923081564348,51.23923081564348 0 0,0 0.7310015721231641,0.4935755246182654 l -17.136625212117647 24.914797945421434" fill="#91ff23" stroke="none" /><path d="M 112.77801427241765 83.33499621200491 l 6.830801992110113 -8.908687895214051 a32.226066803192865,32.226066803192865 0 0,0 0.43730380543654174,0.3413225565412449 l -6.983138352706085 8.789786949449583" fill="#ff810b" stroke="none" /><path d="M 113.06298171725822 83.55741782278167 l 11.506196873433673 -14.48303241431735 a39.49731857336035,39.49731857336035 0 0,0 0.5286934293708189,0.4274999850543359 l -11.753793701368984 14.282826331998884" fill="#ffe115" stroke="none" /><path d="M 113.34407831869373 83.78471172551755 l 9.39877247924519 -11.42108143682957 a35.79114685557918,35.79114685557918 0 0,0 0.4723450759339598,0.39557541717751277 l -9.593975092138267 11.257604862258239" fill="#ffb110" stroke="none" /><path d="M 117.45458315368197 88.32363383020206 l 48.766439992937286 -32.62265303854585 a79.67199639400468,79.67199639400468 0 0,0 0.7527234358248477,1.1464494341478149 l -49.32076006412006 31.77838554042036" fill="#48fbff" stroke="none" /><line stroke="#e1ed5e" stroke-width="0.3" x1="172.23445277983987" x2="176.4835382374775" y1="55.19839476539836" y2="52.563006222186495" /><path d="M 173.08426987136738 54.67131705675599 a86.0,86.0 0 0,1 12.851231095245387,41.99856678651699" fill="none" id="id15" stroke="none" /><text fill="#e1ed5e" style="font-size:6.75px; font-family:Arial;" text-anchor="middle"><textPath startOffset="22.20632615414155" xlink:href="#id15">March</textPath></text><path d="M 119.04729006885535 91.15688171328212 l 10.861808543841802 -5.0428306291157465 a32.97535075048003,32.97535075048003 0 0,0 0.23459242854488924,0.516893319893876 l -10.947003289350038 4.855115300379808" fill="#ff8b0c" stroke="none" /><path d="M 119.34039704204932 91.81776055985345 l 13.559413137397698 -5.73650916870219 a35.72294882396993,35.72294882396993 0 0,0 0.2347139151515271,0.5683783628801725 l -13.656148739435421 5.502256235368714" fill="#ffb010" stroke="none" /><path d="M 119.61058180528143 92.48833698450437 l 12.349210433904389 -4.730257786739905 a34.22415732929197,34.22415732929197 0 0,0 0.2059893547057608,0.5519490591475789 l -12.428804377111774 4.516985590562993" fill="#ff9c0e" stroke="none" /><path d="M 120.94382443527127 98.46500227214037 l 2.238270746258082 -0.16404551711457 a23.2442742402033,23.2442742402033 0 0,0 0.02581155894346808,0.39929339238904793 l -2.2407628962059656 0.12549306047248682" fill="#ff0000" stroke="none" /><line stroke="#e1ed5e" stroke-width="0.3" x1="184.98032266829074" x2="189.97916517819016" y1="98.17113171792111" y2="98.06355123074" /><path d="M 185.9800911702706 98.14961562048488 a86.0,86.0 0 0,1 -9.607161424134198,41.387399972396054" fill="none" id="id16" stroke="none" /><text fill="#e1ed5e" style="font-size:6.75px; font-family:Arial;" text-anchor="middle"><textPath startOffset="21.466115282336823" xlink:href="#id16">April</textPath></text><line stroke="#e1ed5e" stroke-width="0.3" x1="174.80103733775053" x2="179.2010983576182" y1="140.37084112569926" y2="142.7455964860345" /><path d="M 175.68104954172406 140.8457921977663 a86.0,86.0 0 0,1 -30.038265399797805,32.042727171017184" fill="none" id="id17" stroke="none" /><text fill="#e1ed5e" style="font-size:6.75px; font-family:Arial;" text-anchor="middle"><textPath startOffset="22.206326154141568" xlink:href="#id17">May</textPath></text><path d="M 115.56566222782051 114.09645910891815 l 4.176911899417566 3.7826638487926156 a26.635169811856482,26.635169811856482 0 0,0 -0.3106847866218169,0.3371869748874006 l -4.111180704800026 -3.854002078481351" fill="#ff3204" stroke="none" /><path d="M 115.32070863581623 114.36230785411682 l 10.49262971642896 9.836253777081147 a35.382182266027336,35.382182266027336 0 0,0 -0.4203629844423431,0.440748908598732 l -10.32176018060765 -10.015409802262386" fill="#ffab0f" stroke="none" /><path d="M 115.07121518719521 114.62390073753431 l 8.056528503403351 7.817410318909578 a32.22584320308923,32.22584320308923 0 0,0 -0.3897169046149932,0.3947811668325376 l -7.9207709737328225 -7.9549319797227795" fill="#ff810b" stroke="none" /><path d="M 114.81725581225074 114.88116024355365 l 14.382024921711194 14.444052272473836 a41.38316184743374,41.38316184743374 0 0,0 -0.509111515910701,0.4982727720886746 l -14.131263453424697 -14.689475147485084" fill="#fff817" stroke="none" /><path d="M 114.55890576462653 115.13401014063108 l 9.454997880787774 9.828488220258645 a34.63804112112382,34.63804112112382 0 0,0 -0.4332462937817563,0.4096614126408394 l -9.28441575261521 -9.989784269645405" fill="#ffa10e" stroke="none" /><path d="M 114.29624159901734 115.38237550388516 l 4.2297650634977595 4.551114644313887 a27.2131760797578,27.2131760797578 0 0,0 -0.34586709314880565,0.3159413891618061 l -4.15079842088209 -4.623248800062275" fill="#ff3a05" stroke="none" /><path d="M 114.0293411484842 115.62618273729858 l 5.605303197364939 6.243307588927802 a29.390370288870038,29.390370288870038 0 0,0 -0.3793564103669164,0.3347379251352859 l -5.497004434091434 -6.338868655835377" fill="#ff5908" stroke="none" /><path d="M 112.04921762599082 117.19931262002967 l 3.855794116103767 5.503843524104857 a27.720077514702595,27.720077514702595 0 0,0 -0.39315401168924685,0.2704149142095417 l -3.760483219791637 -5.569399227679493" fill="#ff4106" stroke="none" /><line stroke="#e1ed5e" stroke-width="0.3" x1="143.8653032363475" x2="146.44561519142675" y1="172.8068346515853" y2="177.08958963109032" /><path d="M 144.38136562736335 173.6633856474863 a86.0,86.0 0 0,1 -40.68145358897372,12.25698825130547" fill="none" id="id18" stroke="none" /><text fill="#e1ed5e" style="font-size:6.75px; font-family:Arial;" text-anchor="middle"><textPath startOffset="21.466115282336833" xlink:href="#id18">June</textPath></text><path d="M 103.06178313531738 120.77559828337769 l 0.44558658002063406 3.023508647686515 a24.056166216508785,24.056166216508785 0 0,0 -0.4101821584661464,0.056847509575067776 l -0.39347583036765715 -3.0307307227541855" fill="#ff0c01" stroke="none" /><line stroke="#e1ed5e" stroke-width="0.3" x1="102.19456741930631" x2="102.32365962044197" y1="184.97166512339345" y2="189.96999836594603" /><path d="M 102.22038585953345 185.97133177190398 a86.0,86.0 0 0,1 -42.740103519485714,-10.115201625700543" fill="none" id="id19" stroke="none" /><text fill="#e1ed5e" style="font-size:6.75px; font-family:Arial;" text-anchor="middle"><textPath startOffset="22.20632615414155" xlink:href="#id19">July</textPath></text><line stroke="#e1ed5e" stroke-width="0.3" x1="58.666819895761336" x2="56.23545636021788" y1="174.27360380694188" y2="178.64263932499728" /><path d="M 58.180547188652646 175.14741091055294 a86.0,86.0 0 0,1 -31.652253787137756,-30.449443065178592" fill="none" id="id20" stroke="none" /><text fill="#e1ed5e" style="font-size:6.75px; font-family:Arial;" text-anchor="middle"><textPath startOffset="22.20632615414155" xlink:href="#id20">August</textPath></text><path d="M 89.4739219176387 118.17145234162733 l -2.2657632165018553 3.9114481180857488 a25.520299695123033,25.520299695123033 0 0,0 -0.3782255812431844,-0.2234623401633625 l 2.332756668773422 -3.8718672056286367" fill="#ff2203" stroke="none" /><line stroke="#e1ed5e" stroke-width="0.3" x1="26.63291911575756" x2="22.317208475507996" y1="142.92168965132927" y2="145.44649492493687" /><path d="M 25.769776987707644 143.4266507060508 a86.0,86.0 0 0,1 -11.730757126820373,-40.83630448921669" fill="none" id="id21" stroke="none" /><text fill="#e1ed5e" style="font-size:6.75px; font-family:Arial;" text-anchor="middle"><textPath startOffset="21.46611528233685" xlink:href="#id21">September</textPath></text><path d="M 81.35079622478065 109.6543875284942 l -4.004952468393229 2.073298336438648 a25.5097904902521,25.5097904902521 0 0,0 -0.19851637597098293,-0.39169164304422327 l 4.040047514150479 -2.00405248169174" fill="#ff2103" stroke="none" /><path d="M 81.18737489456691 109.33194174019688 l -4.053267958194998 2.0106104401324973 a25.524548097092133,25.524548097092133 0 0,0 -0.19185556159556977,-0.39527928262712553 l 4.087276776405287 -1.940542201540087" fill="#ff2203" stroke="none" /><path d="M 81.02952815118164 109.00673069616217 l -3.7715657014598234 1.7906500611394371 a25.1750611351077,25.1750611351077 0 0,0 -0.18248968225583606,-0.393066540534787 l 3.801830000555486 -1.725463453325823" fill="#ff1d02" stroke="none" /><path d="M 80.87730276802145 108.67885076344099 l -7.884032746974559 3.5781742917860537 a29.658019612923376,29.658019612923376 0 0,0 -0.20698319921373698,-0.46669247225822774 l 7.944457030919576 -3.4419334830351302" fill="#ff5d08" stroke="none" /><path d="M 80.58989483394504 108.01547362559985 l -2.218825237666671 0.916271963504629 a23.40057071264547,23.40057071264547 0 0,0 -0.15054075848397805,-0.37362981679948387 l 2.2342686104080367 -0.8779427788623397" fill="#ff0200" stroke="none" /><line stroke="#e1ed5e" stroke-width="0.3" x1="15.007084014347285" x2="10.007500721073583" y1="101.09737516637583" y2="101.16192664675087" /><path d="M 14.007167355692545 101.11028546245083 a86.0,86.0 0 0,1 10.666146001902534,-42.60595125391555" fill="none" id="id22" stroke="none" /><text fill="#e1ed5e" style="font-size:6.75px; font-family:Arial;" text-anchor="middle"><textPath startOffset="22.20632615414155" xlink:href="#id22">October</textPath></text><line stroke="#e1ed5e" stroke-width="0.3" x1="26.266209847984243" x2="21.928928074336255" y1="57.711370442889674" y2="55.22380399835377" /><path d="M 25.398753493254645 57.213857153982495 a86.0,86.0 0 0,1 29.58750427330803,-30.492523968695096" fill="none" id="id23" stroke="none" /><text fill="#e1ed5e" style="font-size:6.75px; font-family:Arial;" text-anchor="middle"><textPath startOffset="21.46611528233685" xlink:href="#id23">November</textPath></text><path d="M 83.84228863543731 86.58626213691792 l -15.789944551144764 -13.108426824988621 a41.52201751179224,41.52201751179224 0 0,0 0.4612688567668046,-0.5459968347249787 l 15.561965080890834 13.378282609342715" fill="#fffa17" stroke="none" /><path d="M 85.57189188830299 84.74124197986013 l -3.7516778333762493 -3.967668095209303 a26.460538130916085,26.460538130916085 0 0,0 0.3336448517910558,-0.3100865278102556 l 3.682825097790337 4.031659209094206" fill="#ff2f04" stroke="none" /><path d="M 86.93701828274178 83.55741782278169 l -3.0456475423097884 -3.833604844681858 a25.896171469336615,25.896171469336615 0 0,0 0.35140789594143984,-0.2742794367219761 l 2.979207091208923 3.885462670627056" fill="#ff2703" stroke="none" /><path d="M 87.22198572758235 83.33499621200491 l -4.110236389707339 -5.36054378589046 a27.754959130869945,27.754959130869945 0 0,0 0.38163577149130434,-0.28744015094796305 l 4.017354464457645 5.430500526344278" fill="#ff4206" stroke="none" /><path d="M 87.80319425747018 82.90503203632743 l -9.639897642214063 -13.511221285758635 a37.597612092861475,37.597612092861475 0 0,0 0.5300705793670996,-0.37134831542576935 l 9.405895923263303 13.675154443948346" fill="#ffc812" stroke="none" /><line stroke="#e1ed5e" stroke-width="0.3" x1="56.762969772571076" x2="54.21961505331055" y1="26.818313649435495" y2="22.513508569990535" /><path d="M 56.25429882871897 25.957352633546506 a86.0,86.0 0 0,1 42.265352541879196,-11.944610805530505" fill="none" id="id24" stroke="none" /><text fill="#e1ed5e" style="font-size:6.75px; font-family:Arial;" text-anchor="middle"><textPath startOffset="22.20632615414155" xlink:href="#id24">December</textPath></text><path d="M 98.55514903715128 79.0497635885617 l -1.9644892196459305 -28.484954253107652 a49.55261523391055,49.55261523391055 0 0,0 0.8514506740782272,-0.05136182987132646 l 1.4738764967280804 28.514549352359285" fill="#a4ff21" stroke="none" /></svg>