<?xml version="1.0" encoding="utf-8" ?>
<svg baseProfile="full" height="200mm" version="1.1" viewBox="0,0,200,200" width="200mm" xmlns="http://www.w3.org/2000/svg" xmlns:ev="http://www.w3.org/2001/xml-events" xmlns:xlink="http://www.w3.org/1999/xlink"><defs /><rect fill="#1a1a1a" height="200" width="200" x="0" y="0" /><rect fill="#1a1a1a" height="200" width="180" x="10" y="0" /><text alignment-baseline="middle" fill="#e1ed5e" style="dominant-baseline: central; font-size:9.0px; font-family:Arial;" text-anchor="middle" x="100.0" y="100.0">2022</text><line stroke="#e1ed5e" stroke-width="0.3" x1="100.0" x2="100.0" y1="15.0" y2="10.0" /><path d="M 100.0 14.0 a86.0,86.0 0 0,1 42.46469731375804,11.215312516191453" fill="none" id="id1" stroke="none" /><text fill="#e1ed5e" style="font-size:6.75px; font-family:Arial;" text-anchor="middle"><textPath startOffset="22.20632615414155" xlink:href="#id1">January</textPath></text><line stroke="#e1ed5e" stroke-width="0.3" x1="143.23703022742887" x2="145.7803849466894" y1="26.81831364943548" y2="22.513508569990506" /><path d="M 143.74570117128098 25.957352633546492 a86.0,86.0 0 0,1 28.547481713284135,27.462654790039103" fill="none" id="id2" stroke="none" /><text fill="#e1ed5e" style="font-size:6.75px; font-family:Arial;" text-anchor="middle"><textPath startOffset="19.985693538727396" xlink:href="#id2">February</textPath></text><line stroke="#e1ed5e" stroke-width="0.3" x1="172.23445277983987" x2="176.4835382374775" y1="55.19839476539836" y2="52.563006222186495" /><path d="M 173.08426987136738 54.67131705675599 a86.0,86.0 0 0,1 12.851231095245387,41.99856678651699" fill="none" id="id3" stroke="none" /><text fill="#e1ed5e" style="font-size:6.75px; font-family:Arial;" text-anchor="middle"><textPath startOffset="22.20632615414155" xlink:href="#id3">March</textPath></text><line stroke="#e1ed5e" stroke-width="0.3" x1="184.98032266829074" x2="189.97916517819016" y1="98.17113171792111" y2="98.06355123074" /><path d="M 185.9800911702706 98.14961562048488 a86.0,86.0 0 0,1 -9.607161424134198,41.387399972396054" fill="none" id="id4" stroke="none" /><text fill="#e1ed5e" style="font-size:6.75px; font-family:Arial;" text-anchor="middle"><textPath startOffset="21.466115282336823" xlink:href="#id4">April</textPath></text><path d="M 120.49622156327973 104.57218783832717 l 14.131460107354052 3.15237078410616 a35.478798511141214,35.478798511141214 0 0,0 -0.13809604341736323,0.5949141407327567 l -14.075103498006134 -3.3951535821874814" fill="#ff820b" stroke="none" /><path d="M 120.41448212921028 104.9243191809786 l 16.79228567228725 4.050583987638734 a38.273913532856966,38.273913532856966 0 0,0 -0.16000078884923796,0.6391236168230571 l -16.72007356914295 -4.339035443859187" fill="#ffaa0f" stroke="none" /><path d="M 120.02730092923936 106.31721596034902 l 11.570885492257949 3.6498069692628836 a33.132867838554304,33.132867838554304 0 0,0 -0.17624752779148037,0.5424341147516809 l -11.506345713450221 -3.8484399839923595" fill="#ff5f08" stroke="none" /><path d="M 119.79798401119884 107.00284435728193 l 54.76225329750014 19.370231649824458 a79.08709202901645,79.08709202901645 0 0,0 -0.46501605396335466,1.2795244640589136 l -54.420712982531555 -20.310003910889503" fill="#46fffa" stroke="none" /><path d="M 119.67450827220406 107.3425965602758 l 15.798283381538342 5.895975625445735 a37.862629877312756,37.862629877312756 0 0,0 -0.23313593489382575,0.6086443592523848 l -15.694453167051009 -6.167043551531264" fill="#ffa40f" stroke="none" /><path d="M 119.12269723197855 108.67885076344098 l 12.45813884298787 5.654135841658781 a34.68117230163752,34.68117230163752 0 0,0 -0.25139784486002853,0.5414885924262949 l -12.35896638128801 -5.867744501363907" fill="#ff760a" stroke="none" /><path d="M 118.81262510543309 109.33194174019688 l 28.786608750311355 14.279504016596036 a53.1336751446747,53.1336751446747 0 0,0 -0.4134845652993806,0.815844274626552 l -28.536545515225704 -14.772902502925282" fill="#93ff23" stroke="none" /><path d="M 118.64920377521936 109.65438752849418 l 31.46109899084918 16.286895965691308 a56.42687863627366,56.42687863627366 0 0,0 -0.4539609340141334,0.8587230075100023 l -31.176085548610153 -16.826033988287445" fill="#6dff28" stroke="none" /><line stroke="#e1ed5e" stroke-width="0.3" x1="174.80103733775053" x2="179.2010983576182" y1="140.37084112569926" y2="142.7455964860345" /><path d="M 175.68104954172406 140.8457921977663 a86.0,86.0 0 0,1 -30.038265399797805,32.042727171017184" fill="none" id="id5" stroke="none" /><text fill="#e1ed5e" style="font-size:6.75px; font-family:Arial;" text-anchor="middle"><textPath startOffset="22.206326154141568" xlink:href="#id5">May</textPath></text><path d="M 117.94076556474637 110.91462005526583 l 19.207461728056256 11.68523975363352 a43.482691434404444,43.482691434404444 0 0,0 -0.3945233466981445,0.6360972538457544 l -19.003473741690147 -12.014133338844548" fill="#fff116" stroke="none" /><line stroke="#e1ed5e" stroke-width="0.3" x1="143.8653032363475" x2="146.44561519142675" y1="172.8068346515853" y2="177.08958963109032" /><path d="M 144.38136562736335 173.6633856474863 a86.0,86.0 0 0,1 -40.68145358897372,12.25698825130547" fill="none" id="id6" stroke="none" /><text fill="#e1ed5e" style="font-size:6.75px; font-family:Arial;" text-anchor="middle"><textPath startOffset="21.466115282336833" xlink:href="#id6">June</textPath></text><line stroke="#e1ed5e" stroke-width="0.3" x1="102.19456741930631" x2="102.32365962044197" y1="184.97166512339345" y2="189.96999836594603" /><path d="M 102.22038585953345 185.97133177190398 a86.0,86.0 0 0,1 -42.740103519485714,-10.115201625700543" fill="none" id="id7" stroke="none" /><text fill="#e1ed5e" style="font-size:6.75px; font-family:Arial;" text-anchor="middle"><textPath startOffset="22.20632615414155" xlink:href="#id7">July</textPath></text><line stroke="#e1ed5e" stroke-width="0.3" x1="58.666819895761336" x2="56.23545636021788" y1="174.27360380694188" y2="178.64263932499728" /><path d="M 58.180547188652646 175.14741091055294 a86.0,86.0 0 0,1 -31.652253787137756,-30.449443065178592" fill="none" id="id8" stroke="none" /><text fill="#e1ed5e" style="font-size:6.75px; font-family:Arial;" text-anchor="middle"><textPath startOffset="22.20632615414155" xlink:href="#id8">August</textPath></text><path d="M 85.18274418774928 114.88116024355367 l -10.090573809537421 10.134092824730885 a35.301032032199096,35.301032032199096 0 0,0 -0.4269060966567562,-0.4324536220274416 l 10.26352053124971 -9.95889870872278" fill="#ff7f0b" stroke="none" /><path d="M 84.67929136418377 114.36230785411682 l -16.600432329674117 15.561977275179165 a43.75410930459117,43.75410930459117 0 0,0 -0.5103679161479573,-0.5539035740909712 l 16.8658466538178 -15.27392244628685" fill="#fff517" stroke="none" /><path d="M 83.95833913139862 113.55231037782056 l -4.566556469691868 3.85791665476746 a26.978039721013637,26.978039721013637 0 0,0 -0.2966351088863387,-0.35731609778751194 l 4.632287578471743 -3.778739299866187" fill="#ff0000" stroke="none" /><path d="M 83.50135304334701 112.99209946851258 l -10.330008625986073 8.13451551099984 a34.1483619060187,34.1483619060187 0 0,0 -0.35968499318007346,-0.46494133971025986 l 10.468500436384215 -7.955496177176329" fill="#ff6e0a" stroke="none" /><line stroke="#e1ed5e" stroke-width="0.3" x1="26.63291911575756" x2="22.317208475507996" y1="142.92168965132927" y2="145.44649492493687" /><path d="M 25.769776987707644 143.4266507060508 a86.0,86.0 0 0,1 -11.730757126820373,-40.83630448921669" fill="none" id="id9" stroke="none" /><text fill="#e1ed5e" style="font-size:6.75px; font-family:Arial;" text-anchor="middle"><textPath startOffset="21.46611528233685" xlink:href="#id9">September</textPath></text><line stroke="#e1ed5e" stroke-width="0.3" x1="15.007084014347285" x2="10.007500721073583" y1="101.09737516637583" y2="101.16192664675087" /><path d="M 14.007167355692545 101.11028546245083 a86.0,86.0 0 0,1 10.666146001902534,-42.60595125391555" fill="none" id="id10" stroke="none" /><text fill="#e1ed5e" style="font-size:6.75px; font-family:Arial;" text-anchor="middle"><textPath startOffset="22.20632615414155" xlink:href="#id10">October</textPath></text><path d="M 79.32604984820605 96.31383870115002 l -12.082907085110381 -2.154379987748462 a33.2734671857231,33.2734671857231 0 0,0 0.10538859918415933,-0.5629901109484349 l 12.04403276201636 2.36204817615947" fill="#ff6109" stroke="none" /><path d="M 79.3925641242962 95.95851677861259 l -6.24181026095413 -1.224129561430376 a27.360714465916544,27.360714465916544 0 0,0 0.0946168737516025,-0.4613854789115809 l 6.2198140912875335 1.3313906965053595" fill="#ff0601" stroke="none" /><path d="M 79.46518482838121 95.60439243477599 l -6.62437817241845 -1.4179902066920766 a27.774443327498478,27.774443327498478 0 0,0 0.10409545656037784,-0.4666395206923302 l 6.598988328856035 1.531807896934366" fill="#ff0d01" stroke="none" /><path d="M 79.54389044137918 95.25157060432595 l -6.255045389066534 -1.45196921788101 a27.42135557565196,27.42135557565196 0 0,0 0.11068721548573858,-0.45886996748585906 l 6.22912537331998 1.5594244170262659" fill="#ff0701" stroke="none" /><path d="M 79.62865764111835 94.90015583598534 l -33.27806040325679 -8.330964113579071 a55.30501810616852,55.30501810616852 0 0,0 0.23913802428662712,-0.9214963581158653 l 33.12972604709986 8.9025568972438" fill="#7aff26" stroke="none" /><path d="M 81.43458229118936 90.18545643968196 l -55.69625312643191 -29.44363068095413 a84.0,84.0 0 0,0 0.6867676031261127,-1.2724760666701092 l 55.18117742408733 30.39798773095671" fill="#4dd2ff" stroke="none" /><line stroke="#e1ed5e" stroke-width="0.3" x1="26.266209847984243" x2="21.928928074336255" y1="57.711370442889674" y2="55.22380399835377" /><path d="M 25.398753493254645 57.213857153982495 a86.0,86.0 0 0,1 29.58750427330803,-30.492523968695096" fill="none" id="id11" stroke="none" /><text fill="#e1ed5e" style="font-size:6.75px; font-family:Arial;" text-anchor="middle"><textPath startOffset="21.46611528233685" xlink:href="#id11">November</textPath></text><path d="M 83.6137871275137 86.86637796730984 l -47.75627028466898 -38.27686168186995 a82.20277356227707,82.20277356227707 0 0,0 0.8944503673563412,-1.0964903893769538 l 47.09032142523625 39.09323624085499" fill="#4be4ff" stroke="none" /><path d="M 83.84228863543731 86.58626213691792 l -47.42520667011301 -39.37124980277831 a82.63802023699093,82.63802023699093 0 0,0 0.918027287796487,-1.0866547480387168 l 46.7404687688294 40.181763500446145" fill="#4be0ff" stroke="none" /><path d="M 84.31358615837235 86.03803664274999 l -41.33553641026779 -36.79140755428069 a76.33745783960225,76.33745783960225 0 0,0 0.8820842668563827,-0.9740194788118668 l 40.69610850279537 37.49747982036211" fill="#43ffdc" stroke="none" /><line stroke="#e1ed5e" stroke-width="0.3" x1="56.762969772571076" x2="54.21961505331055" y1="26.818313649435495" y2="22.513508569990535" /><path d="M 56.25429882871897 25.957352633546506 a86.0,86.0 0 0,1 42.265352541879196,-11.944610805530505" fill="none" id="id12" stroke="none" /><text fill="#e1ed5e" style="font-size:6.75px; font-family:Arial;" text-anchor="middle"><textPath startOffset="22.20632615414155" xlink:href="#id12">December</textPath></text><path d="M 91.90106846888425 80.62456947434976 l -22.52183013485956 -53.87996594513133 a79.39763319580666,79.39763319580666 0 0,0 1.2655080260543596,-0.5162324988417549 l 21.59103823921682 54.259659330156666" fill="#47fffd" stroke="none" /><path d="M 92.57280143429618 80.3572730644239 l -18.049729601863092 -47.73615606125703 a72.0346287750294,72.0346287750294 0 0,0 1.16359139223342,-0.4285605297112777 l 17.225355883857105 48.03977985877463" fill="#3dffac" stroke="none" /><path d="M 98.55514903715128 79.0497635885617 l -0.9167353838770412 -13.292597999926468 a34.32417222013065,34.32417222013065 0 0,0 0.5897839990089463,-0.03557738145045494 l 0.6877893360284719 13.306408650757229" fill="#ff710a" stroke="none" /><path d="M 99.27714615592234 79.0124445844662 l -0.8949744605813299 -25.984957043294205 a47.00036484026595,47.00036484026595 0 0,0 0.8087942852092956,-0.020888770211387322 l 0.44755354017715515 25.99651260564795" fill="#dfff1b" stroke="none" /><path d="M 99.63851952072746 79.00311137660856 l -0.8055770108257744 -46.792598062039445 a67.79953191770136,67.79953191770136 0 0,0 1.1670574900982986,-0.010045232270475069 l 1.1462579392921472e-14 46.79953191770136" fill="#37ff79" stroke="none" /></svg>