<?xml version="1.0" encoding="utf-8" ?>
<svg baseProfile="full" height="200mm" version="1.1" viewBox="0,0,200,200" width="200mm" xmlns="http://www.w3.org/2000/svg" xmlns:ev="http://www.w3.org/2001/xml-events" xmlns:xlink="http://www.w3.org/1999/xlink"><defs /><rect fill="#1a1a1a" height="200" width="200" x="0" y="0" /><rect fill="#1a1a1a" height="200" width="180" x="10" y="0" /><text alignment-baseline="middle" fill="#e1ed5e" style="dominant-baseline: central; font-size:9.0px; font-family:Arial;" text-anchor="middle" x="100.0" y="100.0">2023</text><line stroke="#e1ed5e" stroke-width="0.3" x1="100.0" x2="100.0" y1="15.0" y2="10.0" /><path d="M 100.0 14.0 a86.0,86.0 0 0,1 42.46469731375804,11.215312516191453" fill="none" id="id37" stroke="none" /><text fill="#e1ed5e" style="font-size:6.75px; font-family:Arial;" text-anchor="middle"><textPath startOffset="22.20632615414155" xlink:href="#id37">January</textPath></text><path d="M 101.44485096284872 79.0497635885617 l 0.7994829858893123 -11.592446551220814 a32.619982361761046,32.619982361761046 0 0,0 0.5598362698098128,0.04345406923748462 l -0.9989094450614663 11.576967219794865" fill="#ff930d" stroke="none" /><path d="M 102.16513564639614 79.11191278185805 l 0.7585767158635686 -7.318348219421846 a28.357557970859983,28.357557970859983 0 0,0 0.4850942395374332,0.05450598997123461 l -0.884437658910727 7.304206275980011" fill="#ff5908" stroke="none" /><path d="M 102.52436894288641 79.15227682838746 l 7.57310682865922 -62.54316951483763 a84.0,84.0 0 0,0 1.4339410859686157,0.1861667073434532 l -8.648562643135682 62.40354448433004" fill="#4dd2ff" stroke="none" /><path d="M 105.36241919743992 79.69619591428918 l 8.403854572919105 -31.819634111189057 a53.91069562699518,53.91069562699518 0 0,0 0.8951796837405371,0.24468642317474837 l -8.950332145883353 31.670261147188015" fill="#6eff28" stroke="none" /><path d="M 105.71112130821622 79.79150937346287 l 0.6098432207489266 -2.157896907640912 a23.24241562113263,23.24241562113263 0 0,0 0.38406407544146903,0.11211883535175074 l -0.6468975139138228 2.147079743370458" fill="#ff1001" stroke="none" /><line stroke="#e1ed5e" stroke-width="0.3" x1="143.23703022742887" x2="145.7803849466894" y1="26.81831364943548" y2="22.513508569990506" /><path d="M 143.74570117128098 25.957352633546492 a86.0,86.0 0 0,1 28.547481713284135,27.462654790039103" fill="none" id="id38" stroke="none" /><text fill="#e1ed5e" style="font-size:6.75px; font-family:Arial;" text-anchor="middle"><textPath startOffset="19.985693538727396" xlink:href="#id38">February</textPath></text><path d="M 110.99172775467656 82.1063720568725 l 6.293072107739421 -10.244603344297069 a33.02308838174246,33.02308838174246 0 0,0 0.48179246712780577,0.3016983987157061 l -6.46848372723949 10.134760604258418" fill="#ff980e" stroke="none" /><path d="M 111.2981086023043 82.29822771554956 l 1.4632248623933648 -2.292567209855898 a23.719722671456143,23.719722671456143 0 0,0 0.34227895755730453,0.22262775510388763 l -1.5024708457349494 2.2670405305924826" fill="#ff1702" stroke="none" /><path d="M 111.60114157652 82.49532879139004 l 16.61151041155519 -25.064690928450826 a51.0696027491547,51.0696027491547 0 0,0 0.728581582960453,0.491941537133004 l -17.040496688922186 24.77503747901915" fill="#8dff24" stroke="none" /><path d="M 112.77801427241765 83.33499621200491 l 6.828609342976613 -8.905828256358083 a32.2224632987029,32.2224632987029 0 0,0 0.4372549063190666,0.3412843900044306 l -6.98089680445511 8.786965477130428" fill="#ff8d0d" stroke="none" /><path d="M 113.06298171725822 83.55741782278167 l 11.388907187677336 -14.335398027442203 a39.30876411816817,39.30876411816817 0 0,0 0.5261695238212929,0.4254591622924851 l -11.63398011006312 14.137232767885587" fill="#ffe815" stroke="none" /><path d="M 113.34407831869373 83.78471172551755 l 4.710747886705305 -5.7243470209797955 a28.413453612770418,28.413453612770418 0 0,0 0.37497973894005043,0.31403474752230554 l -4.808585162604473 5.642411116063671" fill="#ff5a08" stroke="none" /><path d="M 113.6212207817346 84.01681056812373 l 0.730937312629702 -0.8576844702681153 a22.126894851143366,22.126894851143366 0 0,0 0.28776153335896365,0.24954396607965626 l -0.7455926446354297 0.8449755107687879" fill="#ff0000" stroke="none" /><path d="M 113.89432698308785 84.25364557470407 l 2.6718417159615955 -3.027981612857669 a25.038243529426715,25.038243529426715 0 0,0 0.3207148761576945,0.2879409824301084 l -2.72356757971528 2.9815416216582635" fill="#ff2a04" stroke="none" /><path d="M 117.45458315368197 88.32363383020206 l 24.442171001177336 -16.35076220851257 a50.40692347135479,50.40692347135479 0 0,0 0.4762334865701132,0.7253362725477722 l -24.720001123105373 15.927607871987123" fill="#94ff23" stroke="none" /><line stroke="#e1ed5e" stroke-width="0.3" x1="172.23445277983987" x2="176.4835382374775" y1="55.19839476539836" y2="52.563006222186495" /><path d="M 173.08426987136738 54.67131705675599 a86.0,86.0 0 0,1 12.851231095245387,41.99856678651699" fill="none" id="id39" stroke="none" /><text fill="#e1ed5e" style="font-size:6.75px; font-family:Arial;" text-anchor="middle"><textPath startOffset="22.20632615414155" xlink:href="#id39">March</textPath></text><path d="M 119.04729006885535 91.15688171328212 l 10.891014033387318 -5.056389912233653 a33.0075503588358,33.0075503588358 0 0,0 0.23482150220598635,0.517398053341239 l -10.976437852556652 4.868169850050352" fill="#ff980e" stroke="none" /><path d="M 119.34039704204932 91.81776055985345 l 6.796097780110338 -2.875189127431636 a28.3792721562036,28.3792721562036 0 0,0 0.1864630523576419,0.45153507140067345 l -6.844582519354177 2.7577794855776596" fill="#ff5908" stroke="none" /><path d="M 119.61058180528143 92.48833698450437 l 6.18953348242622 -2.370847035787152 a27.62806460417941,27.62806460417941 0 0,0 0.16628859974042565,0.44557077381401894 l -6.22942667066827 2.2639531249437996" fill="#ff4f07" stroke="none" /><path d="M 120.94382443527127 98.46500227214037 l 1.1218410926632338 -0.08222106395036388 a22.124850096921794,22.124850096921794 0 0,0 0.02456849658933888,0.3800637679630901 l -1.1230901802569884 0.06289823173423856" fill="#ff0000" stroke="none" /><line stroke="#e1ed5e" stroke-width="0.3" x1="184.98032266829074" x2="189.97916517819016" y1="98.17113171792111" y2="98.06355123074" /><path d="M 185.9800911702706 98.14961562048488 a86.0,86.0 0 0,1 -9.607161424134198,41.387399972396054" fill="none" id="id40" stroke="none" /><text fill="#e1ed5e" style="font-size:6.75px; font-family:Arial;" text-anchor="middle"><textPath startOffset="21.466115282336823" xlink:href="#id40">April</textPath></text><path d="M 120.70491114924044 103.5080841355445 l 6.173455868953809 1.0459838460188433 a27.261440694604765,27.261440694604765 0 0,0 -0.08237311423961385,0.46199217005753446 l -6.154536312375007 -1.152094766809596" fill="#ff4a06" stroke="none" /><line stroke="#e1ed5e" stroke-width="0.3" x1="174.80103733775053" x2="179.2010983576182" y1="140.37084112569926" y2="142.7455964860345" /><path d="M 175.68104954172406 140.8457921977663 a86.0,86.0 0 0,1 -30.038265399797805,32.042727171017184" fill="none" id="id41" stroke="none" /><text fill="#e1ed5e" style="font-size:6.75px; font-family:Arial;" text-anchor="middle"><textPath startOffset="22.206326154141568" xlink:href="#id41">May</textPath></text><path d="M 115.56566222782051 114.09645910891815 l 4.063392915838936 3.6798596322625894 a26.482018688553133,26.482018688553133 0 0,0 -0.30889836196597664,0.33524816374664057 l -3.9994481458772375 -3.749259050810565" fill="#ff3f05" stroke="none" /><path d="M 115.32070863581623 114.36230785411682 l 10.613289444554267 9.94936552681304 a35.54756980461076,35.54756980461076 0 0,0 -0.42232789431663464,0.44280910874632057 l -10.440454998858668 -10.130581752141868" fill="#ffb911" stroke="none" /><path d="M 115.07121518719521 114.62390073753431 l 8.032229253460738 7.793832271967535 a32.191985001049325,32.191985001049325 0 0,0 -0.38930744709943144,0.39436638853103817 l -7.896881181305771 -7.930939154479237" fill="#ff8d0d" stroke="none" /><path d="M 114.81725581225074 114.88116024355365 l 14.562036029224902 14.624839738822113 a41.63828555628288,41.63828555628288 0 0,0 -0.512250145545522,0.5013445817803183 l -14.308135931303587 -14.873334423525002" fill="#f9ff18" stroke="none" /><path d="M 114.55890576462653 115.13401014063108 l 8.98826232862493 9.34331572902735 a33.96481424859099,33.96481424859099 0 0,0 -0.42482569498463624,0.4016992108908859 l -8.826100799249488 -9.496649576664158" fill="#ffa40f" stroke="none" /><path d="M 114.29624159901734 115.38237550388516 l 4.15576857527941 4.47149639221176 a27.104481340527027,27.104481340527027 0 0,0 -0.34448563244064967,0.3146794575590228 l -4.078183393371896 -4.542368616357366" fill="#ff4706" stroke="none" /><path d="M 114.0293411484842 115.62618273729858 l 5.580560513578777 6.215748654109574 a29.35333388395194,29.35333388395194 0 0,0 -0.3788783627110165,0.3343161036606021 l -5.472739797961173 -6.3108878995424655" fill="#ff6609" stroke="none" /><path d="M 112.04921762599082 117.19931262002967 l 3.474665308493115 4.95981205965069 a27.05582650619236,27.05582650619236 0 0,0 -0.38373293598605257,0.26393501243493 l -3.388775487884179 -5.018887861450714" fill="#ff4706" stroke="none" /><line stroke="#e1ed5e" stroke-width="0.3" x1="143.8653032363475" x2="146.44561519142675" y1="172.8068346515853" y2="177.08958963109032" /><path d="M 144.38136562736335 173.6633856474863 a86.0,86.0 0 0,1 -40.68145358897372,12.25698825130547" fill="none" id="id42" stroke="none" /><text fill="#e1ed5e" style="font-size:6.75px; font-family:Arial;" text-anchor="middle"><textPath startOffset="21.466115282336833" xlink:href="#id42">June</textPath></text><path d="M 103.06178313531738 120.77559828337769 l 0.4336570426888782 2.9425612832398733 a23.97434452212516,23.97434452212516 0 0,0 -0.4087870151623643,0.0566541554257383 l -0.38294143633968347 -2.9495900041582144" fill="#ff1b02" stroke="none" /><line stroke="#e1ed5e" stroke-width="0.3" x1="102.19456741930631" x2="102.32365962044197" y1="184.97166512339345" y2="189.96999836594603" /><path d="M 102.22038585953345 185.97133177190398 a86.0,86.0 0 0,1 -42.740103519485714,-10.115201625700543" fill="none" id="id43" stroke="none" /><text fill="#e1ed5e" style="font-size:6.75px; font-family:Arial;" text-anchor="middle"><textPath startOffset="22.20632615414155" xlink:href="#id43">July</textPath></text><line stroke="#e1ed5e" stroke-width="0.3" x1="58.666819895761336" x2="56.23545636021788" y1="174.27360380694188" y2="178.64263932499728" /><path d="M 58.180547188652646 175.14741091055294 a86.0,86.0 0 0,1 -31.652253787137756,-30.449443065178592" fill="none" id="id44" stroke="none" /><text fill="#e1ed5e" style="font-size:6.75px; font-family:Arial;" text-anchor="middle"><textPath startOffset="22.20632615414155" xlink:href="#id44">August</textPath></text><path d="M 89.4739219176387 118.17145234162733 l -2.2557883642138363 3.8942282616921085 a25.500399415416823,25.500399415416823 0 0,0 -0.3779306476041323,-0.2232880881707848 l 2.3224868828463507 -3.8548216012275742" fill="#ff3104" stroke="none" /><path d="M 88.24862548938628 117.40417183066458 l -2.90036790567803 4.295540181871795 a26.183029948047988,26.183029948047988 0 0,0 -0.3713540576066084,-0.25542070700890607 l 2.9738788479075287 -4.244978685497787" fill="#ff3a05" stroke="none" /><line stroke="#e1ed5e" stroke-width="0.3" x1="26.63291911575756" x2="22.317208475507996" y1="142.92168965132927" y2="145.44649492493687" /><path d="M 25.769776987707644 143.4266507060508 a86.0,86.0 0 0,1 -11.730757126820373,-40.83630448921669" fill="none" id="id45" stroke="none" /><text fill="#e1ed5e" style="font-size:6.75px; font-family:Arial;" text-anchor="middle"><textPath startOffset="21.46611528233685" xlink:href="#id45">September</textPath></text><path d="M 81.35079622478065 109.6543875284942 l -4.0491555988936145 2.09618157354448 a25.55956557725831,25.55956557725831 0 0,0 -0.19890372411050958,-0.39245591767123683 l 4.084637992790391 -2.0261714441705583" fill="#ff3204" stroke="none" /><path d="M 81.18737489456691 109.33194174019688 l -4.006477336841355 1.9874001039878781 a25.472317053156498,25.472317053156498 0 0,0 -0.19146296634848153,-0.39447042013525263 l 4.040093559804555 -1.9181407278873406" fill="#ff3004" stroke="none" /><path d="M 81.02952815118164 109.00673069616217 l -3.67638087788817 1.745458561470704 a25.069693102570902,25.069693102570902 0 0,0 -0.18172588753556237,-0.39142139465768566 l 3.7058813822635592 -1.6819170995341912" fill="#ff2b04" stroke="none" /><path d="M 80.87730276802145 108.67885076344099 l -7.918738373965869 3.593925467138322 a29.696132341372515,29.696132341372515 0 0,0 -0.2072491877918054,-0.4672922062828382 l 7.979428646488954 -3.4570849243627877" fill="#ff6b09" stroke="none" /><path d="M 80.58989483394504 108.01547362559985 l -1.1120948317865962 0.4592436113607672 a22.203187271151975,22.203187271151975 0 0,0 -0.1428377407374417,-0.3545115584724683 l 1.1198351867814256 -0.4400326850454935" fill="#ff0100" stroke="none" /><line stroke="#e1ed5e" stroke-width="0.3" x1="15.007084014347285" x2="10.007500721073583" y1="101.09737516637583" y2="101.16192664675087" /><path d="M 14.007167355692545 101.11028546245083 a86.0,86.0 0 0,1 10.666146001902534,-42.60595125391555" fill="none" id="id46" stroke="none" /><text fill="#e1ed5e" style="font-size:6.75px; font-family:Arial;" text-anchor="middle"><textPath startOffset="22.20632615414155" xlink:href="#id46">October</textPath></text><line stroke="#e1ed5e" stroke-width="0.3" x1="26.266209847984243" x2="21.928928074336255" y1="57.711370442889674" y2="55.22380399835377" /><path d="M 25.398753493254645 57.213857153982495 a86.0,86.0 0 0,1 29.58750427330803,-30.492523968695096" fill="none" id="id47" stroke="none" /><text fill="#e1ed5e" style="font-size:6.75px; font-family:Arial;" text-anchor="middle"><textPath startOffset="21.46611528233685" xlink:href="#id47">November</textPath></text><path d="M 83.84228863543731 86.58626213691792 l -15.828343878311985 -13.140305009783377 a41.57192469557077,41.57192469557077 0 0,0 0.46182327658996075,-0.5466530929225814 l 15.5998099882349 13.410817052335075" fill="#faff18" stroke="none" /><path d="M 85.57189188830299 84.74124197986013 l -3.2298061868419854 -3.4157514398591453 a25.700957977206624,25.700957977206624 0 0,0 0.32406719291828645,-0.3011851376989883 l 3.170531110128843 3.470841163632781" fill="#ff3404" stroke="none" /><path d="M 86.93701828274178 83.55741782278169 l -3.053018042726678 -3.8428822104024127 a25.908020257929053,25.908020257929053 0 0,0 0.3515686825609467,-0.2744049332288563 l 2.9864168050063054 3.894865532854491" fill="#ff3605" stroke="none" /><path d="M 87.22198572758235 83.33499621200491 l -4.098016982766889 -5.344607314181454 a27.73487717288502,27.73487717288502 0 0,0 0.3813596408909134,-0.28723217510453636 l 4.005411188117585 5.414356078791845" fill="#ff5007" stroke="none" /><path d="M 87.80319425747018 82.90503203632743 l -9.400777467072286 -13.176071917980922 a37.185903996169614,37.185903996169614 0 0,0 0.5242661056998739,-0.3672819106824027 l 9.172580221788753 13.335938671427266" fill="#ffce13" stroke="none" /><line stroke="#e1ed5e" stroke-width="0.3" x1="56.762969772571076" x2="54.21961505331055" y1="26.818313649435495" y2="22.513508569990535" /><path d="M 56.25429882871897 25.957352633546506 a86.0,86.0 0 0,1 42.265352541879196,-11.944610805530505" fill="none" id="id48" stroke="none" /><text fill="#e1ed5e" style="font-size:6.75px; font-family:Arial;" text-anchor="middle"><textPath startOffset="22.20632615414155" xlink:href="#id48">December</textPath></text><path d="M 98.55514903715128 79.0497635885617 l -1.4451583639612335 -20.954693705751694 a42.00446788182926,42.00446788182926 0 0,0 0.7217526728600538,-0.043538092247968986 l 1.084243642261557 20.97646506737997" fill="#f5ff19" stroke="none" /></svg>