<?xml version="1.0" encoding="utf-8" ?>
<svg baseProfile="full" height="200mm" version="1.1" viewBox="0,0,200,200" width="200mm" xmlns="http://www.w3.org/2000/svg" xmlns:ev="http://www.w3.org/2001/xml-events" xmlns:xlink="http://www.w3.org/1999/xlink"><defs /><rect fill="#1a1a1a" height="200" width="200" x="0" y="0" /><rect fill="#1a1a1a" height="200" width="180" x="10" y="0" /><text alignment-baseline="middle" fill="#e1ed5e" style="dominant-baseline: central; font-size:9.0px; font-family:Arial;" text-anchor="middle" x="100.0" y="100.0">2022</text><line stroke="#e1ed5e" stroke-width="0.3" x1="100.0" x2="100.0" y1="15.0" y2="10.0" /><path d="M 100.0 14.0 a86.0,86.0 0 0,1 42.46469731375804,11.215312516191453" fill="none" id="id25" stroke="none" /><text fill="#e1ed5e" style="font-size:6.75px; font-family:Arial;" text-anchor="middle"><textPath startOffset="22.20632615414155" xlink:href="#id25">January</textPath></text><path d="M 100.0 79.0 l 0.0 -58.0610033618659 a79.0610033618659,79.0610033618659 0 0,0 1.360905208905441,0.011713740786157317 l -0.9994247296329127 58.0524009976883" fill="#47fffe" stroke="none" /><path d="M 104.307194497241 79.44645832069477 l 1.381384882626354 -6.591843432751827 a27.735029623978058,27.735029623978058 0 0,0 0.4664203575012044,0.1019414246134414 l -1.4946479642810864 6.567088510042515" fill="#ff4d07" stroke="none" /><path d="M 105.36241919743992 79.69619591428918 l 7.966539428035403 -30.16382155746854 a52.19810701644006,52.19810701644006 0 0,0 0.8667423854837751,0.23691343533601028 l -8.48457970274289 30.022221581306237" fill="#82ff25" stroke="none" /><path d="M 105.71112130821622 79.79150937346287 l 0.38071959148064105 -1.3471554674748472 a22.399919733729245,22.399919733729245 0 0,0 0.37014244141971875,0.10805472862446108 l -0.40385225062378693 1.3404024099316827" fill="#ff0000" stroke="none" /><path d="M 106.0581310904928 79.89281104454417 l 8.38134298682091 -27.818025826638905 a50.05321791392962,50.05321791392962 0 0,0 0.8228144269898293,0.25565244772113793 l -8.858942786521457 27.669633244035246" fill="#9aff23" stroke="none" /><path d="M 106.40334571778207 80.00007090966166 l 2.133631277231735 -6.66409032563421 a27.997319650794367,27.997319650794367 0 0,0 0.45771241748988706,0.15090058771414835 l -2.24802651696404 6.626376013660825" fill="#ff5007" stroke="none" /><line stroke="#e1ed5e" stroke-width="0.3" x1="143.23703022742887" x2="145.7803849466894" y1="26.81831364943548" y2="22.513508569990506" /><path d="M 143.74570117128098 25.957352633546492 a86.0,86.0 0 0,1 28.547481713284135,27.462654790039103" fill="none" id="id26" stroke="none" /><text fill="#e1ed5e" style="font-size:6.75px; font-family:Arial;" text-anchor="middle"><textPath startOffset="19.985693538727396" xlink:href="#id26">February</textPath></text><path d="M 113.06298171725822 83.55741782278167 l 4.232109816897977 -5.327023718897381 a27.803523734358507,27.803523734358507 0 0,0 0.3721655252218897,0.3009319723519879 l -4.323178740684358 5.253385649281264" fill="#ff4e07" stroke="none" /><path d="M 113.89432698308785 84.25364557470407 l 2.8117279765696717 -3.1865138426983233 a25.249668773437833,25.249668773437833 0 0,0 0.32342302223311487,0.2903723827158169 l -2.8661619863987764 3.1376424512132086" fill="#ff2904" stroke="none" /><path d="M 114.16331599549186 84.49514656593476 l 3.2093988034834995 -3.513390372375712 a25.758587247125313,25.758587247125313 0 0,0 0.3247938489343516,0.30186048527208525 l -3.269400536212698 3.457625301028986" fill="#ff3104" stroke="none" /><path d="M 114.42810811169701 84.74124197986012 l 24.482625298687857 -25.89213029444743 a56.634272164597284,56.634272164597284 0 0,0 0.7025798516520187,0.6758812606359551 l -24.924688393952295 25.466865947049172" fill="#54ff2b" stroke="none" /><path d="M 114.94478906791727 85.2469230424477 l 4.872076793978668 -4.809577676741947 a27.84610617176216,27.84610617176216 0 0,0 0.33380285905475937,0.34401318835562106 l -4.9541439167365375 4.725000292836212" fill="#ff4e07" stroke="none" /><path d="M 116.82858285166822 87.43820079747576 l 5.511065044034592 -4.11376840732316 a27.87713082823572,27.87713082823572 0 0,0 0.2837326244687119,0.38701098091018626 l -5.5810602810169305 4.01829498274148" fill="#ff4f07" stroke="none" /><line stroke="#e1ed5e" stroke-width="0.3" x1="172.23445277983987" x2="176.4835382374775" y1="55.19839476539836" y2="52.563006222186495" /><path d="M 173.08426987136738 54.67131705675599 a86.0,86.0 0 0,1 12.851231095245387,41.99856678651699" fill="none" id="id27" stroke="none" /><text fill="#e1ed5e" style="font-size:6.75px; font-family:Arial;" text-anchor="middle"><textPath startOffset="22.20632615414155" xlink:href="#id27">March</textPath></text><path d="M 118.03404312379186 89.2402003453031 l 5.846212299834333 -3.488073786518479 a27.807705707133028,27.807705707133028 0 0,0 0.24171560247682858,0.413170317896647 l -5.9053875767814885 3.3869240562679366" fill="#ff4e07" stroke="none" /><path d="M 120.73433829027371 96.67025291283417 l 6.747297620689063 -1.0835549359812129 a27.833748347828266,27.833748347828266 0 0,0 0.07189603863634796,0.4737050649985352 l -6.764949552764712 0.9672507585905956" fill="#ff4e07" stroke="none" /><path d="M 120.96714384426684 98.82574320788733 l 6.810645532650275 -0.3814275723382882 a27.821318022519478,27.821318022519478 0 0,0 0.02266296978827159,0.47837947319243573 l -6.816202110672044 0.2641369925228527" fill="#ff4e07" stroke="none" /><line stroke="#e1ed5e" stroke-width="0.3" x1="184.98032266829074" x2="189.97916517819016" y1="98.17113171792111" y2="98.06355123074" /><path d="M 185.9800911702706 98.14961562048488 a86.0,86.0 0 0,1 -9.607161424134198,41.387399972396054" fill="none" id="id28" stroke="none" /><text fill="#e1ed5e" style="font-size:6.75px; font-family:Arial;" text-anchor="middle"><textPath startOffset="21.466115282336823" xlink:href="#id28">April</textPath></text><path d="M 120.9764740272857 100.99374915477107 l 14.018280100587166 0.6641084666175 a35.03400217450287,35.03400217450287 0 0,0 -0.033722144140996974,0.6021315368925889 l -14.004771605558641 -0.9053117198455123" fill="#ffaf10" stroke="none" /><path d="M 120.64145759157962 103.86396538481128 l 5.986905457673693 1.1207152086016314 a27.090898089601733,27.090898089601733 0 0,0 -0.08974836170681169,0.45762496279464043 l -5.966727162991217 -1.2236038984642168" fill="#ff4406" stroke="none" /><path d="M 120.49622156327973 104.57218783832717 l 13.310608135700326 2.969259502337722 a34.63777074651112,34.63777074651112 0 0,0 -0.13482246563081293,0.5808116533057887 l -13.25752510413896 -3.1979398129920757" fill="#ffaa0f" stroke="none" /><path d="M 120.41448212921028 104.9243191809786 l 8.497800456674684 2.0498135353164915 a29.741530079512806,29.741530079512806 0 0,0 -0.12433189697782587,0.4966441244100045 l -8.461257245401796 -2.195785499123892" fill="#ff6809" stroke="none" /><path d="M 120.32669344350535 105.2749913415812 l 3.9033432247712407 1.0129587368016697 a25.032638557176973,25.032638557176973 0 0,0 -0.11182666558522715,0.4161486231833259 l -3.885328482844236 -1.0799982931605439" fill="#ff2603" stroke="none" /><path d="M 120.02730092923936 106.31721596034902 l 5.855490904523603 1.8469987907222167 a27.139884222514947,27.139884222514947 0 0,0 -0.14436835115127708,0.4443200976274247 l -5.8228303023560795 -1.9475177883274366" fill="#ff4406" stroke="none" /><path d="M 119.79798401119884 107.00284435728193 l 41.63446179521713 14.726734585005413 a65.16225900601768,65.16225900601768 0 0,0 -0.3831408612065168,1.0542390975881704 l -41.374796673005385 -15.441221479599715" fill="#35ff69" stroke="none" /><path d="M 119.67450827220406 107.3425965602758 l 7.99478179172892 2.983681039034583 a29.533398410952977,29.533398410952977 0 0,0 -0.18184939798001226,0.4747513949935811 l -7.942238114155401 -3.1208560008613078" fill="#ff6609" stroke="none" /><path d="M 119.12269723197855 108.67885076344098 l 12.488141859328154 5.667752733570606 a34.71412075736542,34.71412075736542 0 0,0 -0.2516366825408721,0.5420030275428345 l -12.388730559947449 -5.881875828392271" fill="#ffab0f" stroke="none" /><path d="M 118.81262510543309 109.33194174019688 l 28.564455794470224 14.16930576251382 a52.88569209889995,52.88569209889995 0 0,0 -0.41155476914647765,0.812036603737066 l -28.316322355537476 -14.658896577953582" fill="#7bff26" stroke="none" /><path d="M 118.64920377521936 109.65438752849418 l 30.269759602110152 15.670159064991607 a55.08536682348715,55.08536682348715 0 0,0 -0.4431683123018973,0.838307434536138 l -29.99553878158336 -16.18888151461388" fill="#64ff29" stroke="none" /><line stroke="#e1ed5e" stroke-width="0.3" x1="174.80103733775053" x2="179.2010983576182" y1="140.37084112569926" y2="142.7455964860345" /><path d="M 175.68104954172406 140.8457921977663 a86.0,86.0 0 0,1 -30.038265399797805,32.042727171017184" fill="none" id="id29" stroke="none" /><text fill="#e1ed5e" style="font-size:6.75px; font-family:Arial;" text-anchor="middle"><textPath startOffset="22.206326154141568" xlink:href="#id29">May</textPath></text><path d="M 117.94076556474637 110.91462005526583 l 18.829591261727547 11.455354771568526 a43.04038702079036,43.04038702079036 0 0,0 -0.39051026903983926,0.6296268948688222 l -18.629616353019745 -11.777777997802623" fill="#eaff1a" stroke="none" /><line stroke="#e1ed5e" stroke-width="0.3" x1="143.8653032363475" x2="146.44561519142675" y1="172.8068346515853" y2="177.08958963109032" /><path d="M 144.38136562736335 173.6633856474863 a86.0,86.0 0 0,1 -40.68145358897372,12.25698825130547" fill="none" id="id30" stroke="none" /><text fill="#e1ed5e" style="font-size:6.75px; font-family:Arial;" text-anchor="middle"><textPath startOffset="21.466115282336833" xlink:href="#id30">June</textPath></text><line stroke="#e1ed5e" stroke-width="0.3" x1="102.19456741930631" x2="102.32365962044197" y1="184.97166512339345" y2="189.96999836594603" /><path d="M 102.22038585953345 185.97133177190398 a86.0,86.0 0 0,1 -42.740103519485714,-10.115201625700543" fill="none" id="id31" stroke="none" /><text fill="#e1ed5e" style="font-size:6.75px; font-family:Arial;" text-anchor="middle"><textPath startOffset="22.20632615414155" xlink:href="#id31">July</textPath></text><line stroke="#e1ed5e" stroke-width="0.3" x1="58.666819895761336" x2="56.23545636021788" y1="174.27360380694188" y2="178.64263932499728" /><path d="M 58.180547188652646 175.14741091055294 a86.0,86.0 0 0,1 -31.652253787137756,-30.449443065178592" fill="none" id="id32" stroke="none" /><text fill="#e1ed5e" style="font-size:6.75px; font-family:Arial;" text-anchor="middle"><textPath startOffset="22.20632615414155" xlink:href="#id32">August</textPath></text><path d="M 85.18274418774928 114.88116024355367 l -9.87771294208496 9.920313922734541 a34.99935145968675,34.99935145968675 0 0,0 -0.42325778191255986,-0.4287578984531484 l 10.047011349053054 -9.748815530300728" fill="#ffaf10" stroke="none" /><path d="M 84.67929136418377 114.36230785411682 l -12.611071990909911 11.82217497958628 a38.285917910480435,38.285917910480435 0 0,0 -0.44658443406442083,-0.4846792016799985 l 12.81270283297006 -11.603344523104937" fill="#ffd914" stroke="none" /><path d="M 83.95833913139862 113.55231037782056 l -2.3109233853507094 1.952313493856274 a24.025209888793515,24.025209888793515 0 0,0 -0.264167479367609,-0.31820674647843156 l 2.3441868646118547 -1.9122454902640813" fill="#ff1802" stroke="none" /><path d="M 83.50135304334701 112.99209946851258 l -10.464743164313905 8.240614182508988 a34.31985629051691,34.31985629051691 0 0,0 -0.36149134502466335,-0.4672762929680713 l 10.605041326556638 -8.059259895427664" fill="#ffa60f" stroke="none" /><line stroke="#e1ed5e" stroke-width="0.3" x1="26.63291911575756" x2="22.317208475507996" y1="142.92168965132927" y2="145.44649492493687" /><path d="M 25.769776987707644 143.4266507060508 a86.0,86.0 0 0,1 -11.730757126820373,-40.83630448921669" fill="none" id="id33" stroke="none" /><text fill="#e1ed5e" style="font-size:6.75px; font-family:Arial;" text-anchor="middle"><textPath startOffset="21.46611528233685" xlink:href="#id33">September</textPath></text><path d="M 80.0844068197444 106.66101706037122 l -4.46772148315094 1.4942848425804958 a25.710989539552624,25.710989539552624 0 0,0 -0.13676746502896114,-0.42092697554082775 l 4.49278119919615 -1.4171589670618647" fill="#ff3004" stroke="none" /><line stroke="#e1ed5e" stroke-width="0.3" x1="15.007084014347285" x2="10.007500721073583" y1="101.09737516637583" y2="101.16192664675087" /><path d="M 14.007167355692545 101.11028546245083 a86.0,86.0 0 0,1 10.666146001902534,-42.60595125391555" fill="none" id="id34" stroke="none" /><text fill="#e1ed5e" style="font-size:6.75px; font-family:Arial;" text-anchor="middle"><textPath startOffset="22.20632615414155" xlink:href="#id34">October</textPath></text><path d="M 79.21141760316559 97.0276538004421 l -2.935107828396286 -0.419660967375766 a23.964957553128194,23.964957553128194 0 0,0 0.061902748154023086,-0.4078617667130407 l 2.927449186802961 0.4701218464808988" fill="#ff1702" stroke="none" /><path d="M 79.26566170972629 96.67025291283419 l -3.275299489318587 -0.5259834570785458 a24.31726473798081,24.31726473798081 0 0,0 0.06992735002126585,-0.41271517818584497 l 3.265760277777098 0.5822844235802187" fill="#ff1c02" stroke="none" /><path d="M 79.32604984820605 96.31383870115002 l -12.201975340988156 -2.1756098346580104 a33.39441327271056,33.39441327271056 0 0,0 0.10577167734710723,-0.5650365298128045 l 12.162717939731186 2.385324441933388" fill="#ff9a0e" stroke="none" /><path d="M 79.3925641242962 95.95851677861259 l -6.003966991138642 -1.1774842829941337 a27.118340368709525,27.118340368709525 0 0,0 0.09377871291392911,-0.4572983090003226 l 5.982808982309718 1.2806582481578588" fill="#ff4406" stroke="none" /><path d="M 79.46518482838121 95.60439243477599 l -6.616191197029496 -1.4162377326300883 a27.766070888704597,27.766070888704597 0 0,0 0.1040640776114464,-0.4664988550170641 l 6.590832732416012 1.5299147571971117" fill="#ff4d07" stroke="none" /><path d="M 79.54389044137918 95.25157060432595 l -6.203160590026405 -1.4399253194923765 a27.3680912549501,27.3680912549501 0 0,0 0.11047221228040971,-0.457978640394418 l 6.177455577485181 1.5464891915461914" fill="#ff4706" stroke="none" /><path d="M 79.62865764111835 94.90015583598534 l -33.30541556797205 -8.33781231605248 a55.33321744860262,55.33321744860262 0 0,0 0.23925995779766812,-0.9219662176737159 l 33.15695927830407 8.90987495927506" fill="#61ff29" stroke="none" /><path d="M 81.43458229118936 90.18545643968196 l -55.69625312643191 -29.44363068095413 a84.0,84.0 0 0,0 0.6867676031261127,-1.2724760666701092 l 55.18117742408733 30.39798773095671" fill="#4dd2ff" stroke="none" /><line stroke="#e1ed5e" stroke-width="0.3" x1="26.266209847984243" x2="21.928928074336255" y1="57.711370442889674" y2="55.22380399835377" /><path d="M 25.398753493254645 57.213857153982495 a86.0,86.0 0 0,1 29.58750427330803,-30.492523968695096" fill="none" id="id35" stroke="none" /><text fill="#e1ed5e" style="font-size:6.75px; font-family:Arial;" text-anchor="middle"><textPath startOffset="21.46611528233685" xlink:href="#id35">November</textPath></text><path d="M 83.6137871275137 86.86637796730984 l -48.09705435411567 -38.550001619554386 a82.63951056270972,82.63951056270972 0 0,0 0.899202513221336,-1.1023159583073854 l 47.42635334881794 39.37220174746986" fill="#4bdeff" stroke="none" /><path d="M 83.84228863543731 86.58626213691792 l -35.37815774388667 -29.37008363053568 a66.98060306059489,66.98060306059489 0 0,0 0.7440887522032682,-0.8807663849346632 l 34.86735837819627 29.97470896509946" fill="#38ff7e" stroke="none" /><path d="M 84.31358615837235 86.03803664274999 l -28.435538832446188 -25.309542080848125 a59.06773947890493,59.06773947890493 0 0,0 0.6825315532852849,-0.7536683883647897 l 27.99566363854486 25.79526325648247" fill="#3bff2e" stroke="none" /><line stroke="#e1ed5e" stroke-width="0.3" x1="56.762969772571076" x2="54.21961505331055" y1="26.818313649435495" y2="22.513508569990535" /><path d="M 56.25429882871897 25.957352633546506 a86.0,86.0 0 0,1 42.265352541879196,-11.944610805530505" fill="none" id="id36" stroke="none" /><text fill="#e1ed5e" style="font-size:6.75px; font-family:Arial;" text-anchor="middle"><textPath startOffset="22.20632615414155" xlink:href="#id36">December</textPath></text><path d="M 91.90106846888425 80.62456947434976 l -11.397258368526241 -27.266163055442394 a50.55234586432883,50.55234586432883 0 0,0 0.8057469329018087,-0.32868440503127505 l 10.926227566036053 27.458308346657248" fill="#94ff23" stroke="none" /><path d="M 92.57280143429618 80.3572730644239 l -9.134134771581373 -24.157064541053064 a46.82626928663943,46.82626928663943 0 0,0 0.7563951504838662,-0.27858671740447155 l 8.716957295324937 24.310714526263858" fill="#beff1f" stroke="none" /><path d="M 97.11714578562143 79.19881850522333 l -0.2034192087360779 -1.4677675545778976 a22.481796534195702,22.481796534195702 0 0,0 0.3837806159139166,-0.049825738523055614 l 0.17812386431430355 1.4710516162650902" fill="#ff0100" stroke="none" /><path d="M 98.55514903715128 79.0497635885617 l -0.9251835835582274 -13.415096295683508 a34.44696148896646,34.44696148896646 0 0,0 0.5918938574942413,-0.035704653876061525 l 0.6941276772243631 13.429034218939876" fill="#ffa80f" stroke="none" /><path d="M 99.27714615592234 79.0124445844662 l -0.6071135391563359 -17.627116672281947 a38.637568682436566,38.637568682436566 0 0,0 0.6648851525076699,-0.01717202188700171 l 0.30360175145378704 17.63495548631131" fill="#ffde14" stroke="none" /><path d="M 99.63851952072746 79.00311137660856 l -0.4076653306213945 -23.67957340297155 a44.68308230717675,44.68308230717675 0 0,0 0.7691458098939243,-0.006620280813755257 l 5.8006821882854635e-15 23.683082307176747" fill="#d7ff1c" stroke="none" /></svg>