<?xml version="1.0" encoding="utf-8" ?>
<svg baseProfile="full" height="200mm" version="1.1" viewBox="0,0,200,200" width="200mm" xmlns="http://www.w3.org/2000/svg" xmlns:ev="http://www.w3.org/2001/xml-events" xmlns:xlink="http://www.w3.org/1999/xlink"><defs /><rect fill="#1a1a1a" height="200" width="200" x="0" y="0" /><rect fill="#1a1a1a" height="200" width="180" x="10" y="0" /><text alignment-baseline="middle" fill="#e1ed5e" style="dominant-baseline: central; font-size:9.0px; font-family:Arial;" text-anchor="middle" x="100.0" y="100.0">2024</text><line stroke="#e1ed5e" stroke-width="0.3" x1="100.0" x2="100.0" y1="15.0" y2="10.0" /><path d="M 100.0 14.0 a86.0,86.0 0 0,1 42.35913384403234,11.155469271406648" fill="none" id="id25" stroke="none" /><text fill="#e1ed5e" style="font-size:6.75px; font-family:Arial;" text-anchor="middle"><textPath startOffset="22.145653131862478" xlink:href="#id25">January</textPath></text><path d="M 101.44090949804482 79.04949213459386 l 4.322728494134444 -62.8515235962184 a84.0,84.0 0 0,0 1.437724020899066,0.1112889320197854 l -5.401021509808744 62.76805689720356" fill="red" stroke="none" /><path d="M 106.04205211174951 79.88797359093562 l 1.9770829761719075 -6.581066216287135 a27.871629329192942,27.871629329192942 0 0,0 0.4570407922208282,0.1415924057250784 l -2.089764401264366 6.54615722275541" fill="red" stroke="none" /><path d="M 106.38641147887787 79.99465700312896 l 13.696008393499621 -42.90255122241615 a66.03564751734845,66.03564751734845 0 0,0 1.0769384656857217,0.35401106438685576 l -14.430469596833086 42.66111923662727" fill="red" stroke="none" /><line stroke="#e1ed5e" stroke-width="0.3" x1="143.13028292997686" x2="145.6673583964461" y1="26.7553504044142" y2="22.446841604673864" /><path d="M 143.63769802327073 25.89364864446614 a86.0,86.0 0 0,1 29.32050498858742,28.57503671076993" fill="none" id="id26" stroke="none" /><text fill="#e1ed5e" style="font-size:6.75px; font-family:Arial;" text-anchor="middle"><textPath startOffset="20.669276256404974" xlink:href="#id26">February</textPath></text><line stroke="#e1ed5e" stroke-width="0.3" x1="172.87174338648825" x2="177.1583165268699" y1="56.24261187166439" y2="53.66864786411523" /><path d="M 173.72905801456457 55.72781907015455 a86.0,86.0 0 0,1 12.242430191666344,42.057860355516425" fill="none" id="id27" stroke="none" /><text fill="#e1ed5e" style="font-size:6.75px; font-family:Arial;" text-anchor="middle"><textPath startOffset="22.145653131862474" xlink:href="#id27">March</textPath></text><path d="M 120.7213421655516 96.59031103205396 l 29.69627882580462 -4.886511380026732 a51.095630406540124,51.095630406540124 0 0,0 0.13498615872426345,0.8667079715463233 l -29.775786476667147 4.376015226548968" fill="red" stroke="none" /><path d="M 120.77682067341334 96.94652285012252 l 55.76195433419759 -8.195087018769147 a77.3609350739884,77.3609350739884 0 0,0 0.18181839763416724,1.3155473525473966 l -55.89441724838697 7.236651358021665" fill="red" stroke="none" /><path d="M 120.9064616781168 98.02013634271609 l 27.053063429769477 -2.56195323376317 a48.17410247472987,48.17410247472987 0 0,0 0.07089938034674763,0.8239582700233812 l -27.093056432813963 2.097173916364127" fill="red" stroke="none" /><path d="M 120.93736805541906 98.37931529534042 l 6.058495043635311 -0.4689658329779541 a27.076618397287618,27.076618397287618 0 0,0 0.031893727818761555,0.463727802773725 l -6.065652732619139 0.3648946060498949" fill="red" stroke="none" /><path d="M 120.96210409425399 98.7389718711861 l 13.53114812117289 -0.8140002701648529 a34.555610127063595,34.555610127063595 0 0,0 0.03053796187222196,0.5924283020390282 l -13.543127672501685 0.5816001747490941" fill="red" stroke="none" /><path d="M 120.98066250479742 99.09900007780936 l 30.114287682647966 -1.29323708689791 a51.14204347412782,51.14204347412782 0 0,0 0.03013803788633962,0.8774360895770326 l -30.132050407531157 0.7760947327567573" fill="red" stroke="none" /><line stroke="#e1ed5e" stroke-width="0.3" x1="184.99686870605535" x2="189.99668451229388" y1="99.2704041080226" y2="99.22748670261217" /><path d="M 185.99683186730306 99.26182062694052 a86.0,86.0 0 0,1 -10.086455211305974,41.156179273409016" fill="none" id="id28" stroke="none" /><text fill="#e1ed5e" style="font-size:6.75px; font-family:Arial;" text-anchor="middle"><textPath startOffset="21.40746469413373" xlink:href="#id28">April</textPath></text><path d="M 120.99922638620191 100.18025310272382 l 10.015371391948877 0.08596991789737768 a31.015740359326976,31.015740359326976 0 0,0 -0.00914014432055416,0.5323675840962839 l -10.012419816029654 -0.2578844179627326" fill="red" stroke="none" /><line stroke="#e1ed5e" stroke-width="0.3" x1="174.33088141563837" x2="178.70328620479359" y1="141.23008692659167" y2="143.65538615756765" /><path d="M 175.20536237346943 141.71514677278685 a86.0,86.0 0 0,1 -30.301960400862466,31.631185727798858" fill="none" id="id29" stroke="none" /><text fill="#e1ed5e" style="font-size:6.75px; font-family:Arial;" text-anchor="middle"><textPath startOffset="22.145653131862474" xlink:href="#id29">May</textPath></text><line stroke="#e1ed5e" stroke-width="0.3" x1="143.1302829299769" x2="145.66735839644613" y1="173.24464959558577" y2="177.55315839532614" /><path d="M 143.63769802327073 174.10635135553383 a86.0,86.0 0 0,1 -40.68552437913181,11.842963189579606" fill="none" id="id30" stroke="none" /><text fill="#e1ed5e" style="font-size:6.75px; font-family:Arial;" text-anchor="middle"><textPath startOffset="21.407464694133747" xlink:href="#id30">June</textPath></text><line stroke="#e1ed5e" stroke-width="0.3" x1="101.45913802915013" x2="101.54496967792366" y1="184.9874750549273" y2="189.98673829345242" /><path d="M 101.47630435890484 185.9873277026323 a86.0,86.0 0 0,1 -42.54439059252881,-10.42667462771756" fill="none" id="id31" stroke="none" /><text fill="#e1ed5e" style="font-size:6.75px; font-family:Arial;" text-anchor="middle"><textPath startOffset="22.145653131862474" xlink:href="#id31">July</textPath></text><line stroke="#e1ed5e" stroke-width="0.3" x1="58.13341422392154" x2="55.67067388415222" y1="173.97424548756322" y2="178.32567169271397" /><path d="M 57.64086615596768 174.84453072859336 a86.0,86.0 0 0,1 -31.369924170532247,-30.572349798747897" fill="none" id="id32" stroke="none" /><text fill="#e1ed5e" style="font-size:6.75px; font-family:Arial;" text-anchor="middle"><textPath startOffset="22.145653131862474" xlink:href="#id32">August</textPath></text><path d="M 82.37810715431573 111.42229804090323 l -4.975578493446596 3.225109866218143 a26.929394150638487,26.929394150638487 0 0,0 -0.24811244492294246,-0.3900739738005899 l 5.030208629995428 -3.1392222177388813" fill="red" stroke="none" /><line stroke="#e1ed5e" stroke-width="0.3" x1="26.387840678322732" x2="22.057713659400548" y1="142.50000000000003" y2="145.00000000000006" /><path d="M 25.521815274538298 143.00000000000003 a86.0,86.0 0 0,1 -11.493303480769221,-40.785679425670985" fill="none" id="id33" stroke="none" /><text fill="#e1ed5e" style="font-size:6.75px; font-family:Arial;" text-anchor="middle"><textPath startOffset="21.40746469413373" xlink:href="#id33">September</textPath></text><path d="M 81.4637452351635 109.86951160357371 l -8.929665555103155 4.75454394267981 a31.116551538388414,31.116551538388414 0 0,0 -0.24699419346545134,-0.4736439333751532 l 9.009967817543554 -4.600553766200154" fill="red" stroke="none" /><path d="M 81.29705330413844 109.54985784667822 l -25.157327140889215 12.8455104911908 a49.24709274691847,49.24709274691847 0 0,0 -0.3779833658579979,-0.7562199327347767 l 25.37413041995895 -12.41175870229227" fill="red" stroke="none" /><path d="M 81.1358732173502 109.22738970284198 l -7.027199546516898 3.4373554356613303 a28.822847682119203,28.822847682119203 0 0,0 -0.21359204495237244,-0.44632522481461623 l 7.085170849429183 -3.3162177087816094" fill="red" stroke="none" /><path d="M 80.41425534168474 107.57618678355246 l -15.1044947536437 5.842743052213179 a37.19516619664755,37.19516619664755 0 0,0 -0.2252420881255274,-0.5974813991228439 l 15.202567525583662 -5.5825933728961905" fill="red" stroke="none" /><path d="M 80.16572619554312 106.89939002012753 l -9.66715805607607 3.3627393910484056 a31.23532906619348,31.23532906619348 0 0,0 -0.171815993768082,-0.5079434558739819 l 9.72345947141652 -3.196294260700262" fill="red" stroke="none" /><path d="M 80.05021161711548 106.5578916946017 l -8.122400295690076 2.6699943085629174 a29.54998574099306,29.54998574099306 0 0,0 -0.1542724326424686,-0.4832561979730878 l 8.1670374441098 -2.5301690768984377" fill="red" stroke="none" /><path d="M 79.94057633289273 106.21446072829308 l -17.305614831664364 5.361323711742183 a39.11706644697233,39.11706644697233 0 0,0 -0.19320790869250062,-0.6431262905705987 l 17.395099060360497 -5.063459817580861" fill="red" stroke="none" /><path d="M 79.73907114497094 105.5222062557868 l -24.4631504026254 6.667540425033374 a46.35550872968092,46.35550872968092 0 0,0 -0.2026630154301312,-0.7695444796611194 l 24.57400289886026 -6.246615440999451" fill="red" stroke="none" /><path d="M 79.48165901384964 104.47187691870673 l -24.932427191043466 5.433906462428954 a46.5177049336164,46.5177049336164 0 0,0 -0.16334866900007236,-0.7816825140491804 l 25.022033570867908 -5.0051074970943645" fill="red" stroke="none" /><path d="M 79.13060592940153 102.33845913500099 l -25.215173102996694 2.8254127400088307 a46.37297601318166,46.37297601318166 0 0,0 -0.08185406068160628,-0.791863785076621 l 25.259959556159966 -2.3921444326492782" fill="red" stroke="none" /><path d="M 79.06263194458094 101.62068470465958 l -33.70535444816134 2.6090076018473716 a54.806180487341166,54.806180487341166 0 0,0 -0.06455656232996516,-0.9386382480598174 l 33.74517497165637 -2.030025929633211" fill="red" stroke="none" /><line stroke="#e1ed5e" stroke-width="0.3" x1="15.003131293944662" x2="10.003315487706104" y1="100.72959589197737" y2="100.7725132973878" /><path d="M 14.003168132696942 100.73817937305945 a86.0,86.0 0 0,1 10.791469493833604,-42.45332614584628" fill="none" id="id34" stroke="none" /><text fill="#e1ed5e" style="font-size:6.75px; font-family:Arial;" text-anchor="middle"><textPath startOffset="22.145653131862435" xlink:href="#id34">October</textPath></text><line stroke="#e1ed5e" stroke-width="0.3" x1="26.387840678322718" x2="22.05771365940052" y1="57.49999999999999" y2="54.99999999999999" /><path d="M 25.521815274538284 56.99999999999999 a86.0,86.0 0 0,1 29.574782752854787,-30.34633250058573" fill="none" id="id35" stroke="none" /><text fill="#e1ed5e" style="font-size:6.75px; font-family:Arial;" text-anchor="middle"><textPath startOffset="21.40746469413373" xlink:href="#id35">November</textPath></text><path d="M 85.34317274990677 84.96080404539775 l -12.649228783876286 -12.979223068491885 a39.12355429512976,39.12355429512976 0 0,0 0.4849970301792894,-0.4646161838350874 l 12.424559267831695 13.194451382632542" fill="red" stroke="none" /><line stroke="#e1ed5e" stroke-width="0.3" x1="56.869717070023135" x2="54.33264160355391" y1="26.7553504044142" y2="22.446841604673864" /><path d="M 56.362301976729285 25.89364864446614 a86.0,86.0 0 0,1 42.16139366436587,-11.88097634709845" fill="none" id="id36" stroke="none" /><text fill="#e1ed5e" style="font-size:6.75px; font-family:Arial;" text-anchor="middle"><textPath startOffset="22.145653131862474" xlink:href="#id36">December</textPath></text><path d="M 89.65649057296885 81.72400993836675 l -8.391339585630782 -14.826693005180164 a38.03659019614056,38.03659019614056 0 0,0 0.5710121962884724,-0.31673083973634664 l 8.135583201186208 14.968556760349657" fill="red" stroke="none" /></svg>